<?xml version="1.0" encoding="utf-8"?>
<!-- Generator: Adobe Illustrator 16.0.0, SVG Export Plug-In . SVG Version: 6.00 Build 0)  -->
<!DOCTYPE svg PUBLIC "-//W3C//DTD SVG 1.1//EN" "http://www.w3.org/Graphics/SVG/1.1/DTD/svg11.dtd">
<svg version="1.1" id="Calque_1" xmlns="http://www.w3.org/2000/svg" xmlns:xlink="http://www.w3.org/1999/xlink" x="0px" y="0px"
	 width="506px" height="133px" viewBox="0 0 506 133" enable-background="new 0 0 506 133" xml:space="preserve">
<g>
	<g>
		<g>
			<path fill="#456C80" d="M163.23,35.894c-0.502-0.634-1.182-1.103-2.039-1.406c-0.858-0.303-1.67-0.455-2.435-0.455
				c-0.449,0-0.911,0.054-1.386,0.158c-0.475,0.106-0.924,0.271-1.346,0.495c-0.423,0.225-0.766,0.521-1.029,0.891
				c-0.264,0.37-0.396,0.818-0.396,1.347c0,0.845,0.316,1.491,0.95,1.939c0.633,0.449,1.431,0.832,2.395,1.148
				c0.963,0.316,2,0.634,3.108,0.95s2.144,0.766,3.108,1.346c0.963,0.581,1.762,1.36,2.395,2.336c0.634,0.977,0.95,2.283,0.95,3.92
				c0,1.558-0.291,2.916-0.871,4.077c-0.581,1.162-1.366,2.125-2.356,2.891s-2.138,1.333-3.444,1.702s-2.686,0.555-4.137,0.555
				c-1.821,0-3.511-0.277-5.067-0.832c-1.558-0.554-3.009-1.451-4.355-2.691l4.395-4.83c0.633,0.845,1.431,1.498,2.395,1.959
				c0.963,0.463,1.96,0.693,2.989,0.693c0.501,0,1.009-0.06,1.524-0.179c0.515-0.118,0.977-0.297,1.386-0.534s0.739-0.541,0.99-0.91
				c0.25-0.37,0.376-0.805,0.376-1.307c0-0.845-0.324-1.511-0.97-1.999c-0.647-0.488-1.458-0.904-2.435-1.248
				c-0.977-0.342-2.033-0.686-3.167-1.029c-1.135-0.343-2.191-0.805-3.167-1.386c-0.977-0.58-1.788-1.346-2.435-2.296
				c-0.647-0.95-0.97-2.203-0.97-3.761c0-1.505,0.297-2.824,0.891-3.959s1.386-2.085,2.375-2.851s2.131-1.34,3.424-1.723
				c1.293-0.382,2.626-0.574,3.999-0.574c1.583,0,3.114,0.225,4.592,0.673c1.478,0.449,2.811,1.202,3.999,2.257L163.23,35.894z"/>
			<path fill="#456C80" d="M171.694,29.044h19.043v5.701h-12.867v5.226h12.154v5.701h-12.154v5.701h13.58v5.701h-19.756V29.044z"/>
			<path fill="#456C80" d="M213.997,36.329c-0.607-0.739-1.353-1.307-2.237-1.703c-0.885-0.396-1.907-0.594-3.068-0.594
				c-1.162,0-2.237,0.225-3.227,0.673c-0.99,0.449-1.848,1.076-2.574,1.881c-0.726,0.806-1.293,1.762-1.702,2.87
				c-0.41,1.108-0.614,2.311-0.614,3.604c0,1.319,0.204,2.527,0.614,3.622c0.409,1.096,0.97,2.046,1.683,2.851
				c0.712,0.806,1.55,1.432,2.514,1.881s2,0.673,3.108,0.673c1.267,0,2.389-0.264,3.365-0.792c0.977-0.527,1.782-1.267,2.415-2.217
				l5.147,3.84c-1.188,1.663-2.692,2.891-4.513,3.683c-1.821,0.791-3.696,1.188-5.622,1.188c-2.191,0-4.21-0.344-6.057-1.029
				c-1.848-0.687-3.445-1.669-4.791-2.95c-1.346-1.279-2.396-2.83-3.147-4.651c-0.752-1.821-1.128-3.854-1.128-6.097
				s0.376-4.276,1.128-6.098c0.752-1.821,1.801-3.371,3.147-4.651c1.346-1.28,2.942-2.264,4.791-2.95
				c1.847-0.686,3.866-1.029,6.057-1.029c0.792,0,1.616,0.073,2.475,0.218c0.857,0.146,1.702,0.376,2.534,0.693
				c0.832,0.316,1.629,0.739,2.395,1.267c0.765,0.528,1.451,1.175,2.059,1.94L213.997,36.329z"/>
			<path fill="#456C80" d="M245.396,46.266c0,1.663-0.251,3.194-0.752,4.593c-0.501,1.399-1.247,2.613-2.237,3.643
				s-2.224,1.835-3.702,2.415c-1.479,0.58-3.181,0.871-5.107,0.871c-1.954,0-3.669-0.291-5.146-0.871
				c-1.479-0.58-2.712-1.386-3.702-2.415s-1.736-2.243-2.237-3.643c-0.501-1.398-0.752-2.93-0.752-4.593V29.044h6.176v16.984
				c0,0.871,0.138,1.677,0.416,2.415c0.277,0.739,0.666,1.38,1.168,1.92c0.501,0.542,1.102,0.964,1.801,1.268
				c0.699,0.304,1.458,0.455,2.276,0.455c0.818,0,1.57-0.151,2.257-0.455c0.686-0.304,1.28-0.726,1.782-1.268
				c0.501-0.54,0.891-1.181,1.168-1.92c0.277-0.738,0.416-1.544,0.416-2.415V29.044h6.176V46.266z"/>
			<path fill="#456C80" d="M250.733,29.044h10.848c1.426,0,2.777,0.139,4.059,0.416c1.279,0.277,2.401,0.739,3.365,1.386
				c0.963,0.646,1.728,1.518,2.296,2.612c0.567,1.096,0.852,2.462,0.852,4.098c0,1.979-0.515,3.662-1.545,5.048
				c-1.029,1.386-2.533,2.264-4.513,2.633l7.126,11.838h-7.403l-5.859-11.204h-3.048v11.204h-6.176V29.044z M256.909,40.645h3.642
				c0.554,0,1.142-0.021,1.762-0.06c0.62-0.04,1.181-0.158,1.683-0.356c0.501-0.198,0.917-0.508,1.247-0.931
				c0.33-0.422,0.495-1.016,0.495-1.781c0-0.713-0.146-1.28-0.436-1.702c-0.291-0.422-0.66-0.746-1.108-0.971
				c-0.449-0.224-0.964-0.376-1.544-0.455c-0.581-0.079-1.148-0.119-1.703-0.119h-4.038V40.645z"/>
			<path fill="#456C80" d="M276.364,29.044h19.043v5.701h-12.866v5.226h12.154v5.701h-12.154v5.701h13.579v5.701h-19.756V29.044z"/>
			<path fill="#456C80" d="M167.704,72.057c-0.607-0.739-1.353-1.307-2.237-1.703c-0.885-0.396-1.907-0.594-3.068-0.594
				c-1.162,0-2.237,0.225-3.227,0.673c-0.99,0.449-1.848,1.076-2.574,1.881c-0.726,0.806-1.293,1.762-1.702,2.87
				c-0.41,1.108-0.614,2.311-0.614,3.604c0,1.319,0.204,2.527,0.614,3.622c0.409,1.096,0.97,2.046,1.683,2.851
				c0.712,0.806,1.55,1.432,2.514,1.881s2,0.673,3.108,0.673c1.267,0,2.389-0.264,3.365-0.792c0.977-0.527,1.782-1.267,2.415-2.217
				l5.147,3.84c-1.188,1.663-2.692,2.891-4.513,3.683c-1.821,0.791-3.696,1.188-5.622,1.188c-2.191,0-4.21-0.344-6.057-1.029
				c-1.848-0.687-3.445-1.669-4.791-2.95c-1.346-1.279-2.396-2.83-3.147-4.651c-0.752-1.821-1.128-3.854-1.128-6.097
				s0.376-4.276,1.128-6.098c0.752-1.821,1.801-3.371,3.147-4.651c1.346-1.28,2.942-2.264,4.791-2.95
				c1.847-0.686,3.866-1.029,6.057-1.029c0.792,0,1.616,0.073,2.475,0.218c0.857,0.146,1.702,0.376,2.534,0.693
				c0.832,0.316,1.629,0.739,2.395,1.267c0.765,0.528,1.451,1.175,2.059,1.94L167.704,72.057z"/>
			<path fill="#456C80" d="M173.591,78.787c0-2.243,0.376-4.276,1.128-6.098c0.752-1.821,1.801-3.371,3.147-4.651
				c1.346-1.28,2.942-2.264,4.791-2.95c1.847-0.686,3.866-1.029,6.057-1.029c2.19,0,4.209,0.344,6.058,1.029
				c1.847,0.687,3.444,1.67,4.79,2.95c1.346,1.28,2.396,2.83,3.147,4.651c0.752,1.821,1.128,3.854,1.128,6.098
				s-0.376,4.275-1.128,6.097c-0.752,1.821-1.801,3.372-3.147,4.651c-1.346,1.281-2.943,2.264-4.79,2.95
				c-1.848,0.686-3.867,1.029-6.058,1.029c-2.191,0-4.21-0.344-6.057-1.029c-1.848-0.687-3.445-1.669-4.791-2.95
				c-1.346-1.279-2.396-2.83-3.147-4.651C173.967,83.062,173.591,81.03,173.591,78.787z M180.005,78.787
				c0,1.319,0.204,2.527,0.614,3.622c0.409,1.096,0.996,2.046,1.762,2.851c0.765,0.806,1.683,1.432,2.751,1.881
				s2.263,0.673,3.583,0.673c1.319,0,2.514-0.224,3.583-0.673s1.986-1.075,2.751-1.881c0.765-0.805,1.353-1.755,1.762-2.851
				c0.409-1.095,0.614-2.303,0.614-3.622c0-1.293-0.205-2.495-0.614-3.604s-0.997-2.064-1.762-2.87
				c-0.766-0.805-1.683-1.432-2.751-1.881c-1.069-0.448-2.264-0.673-3.583-0.673c-1.32,0-2.514,0.225-3.583,0.673
				c-1.069,0.449-1.986,1.076-2.751,1.881c-0.766,0.806-1.353,1.762-1.762,2.87C180.209,76.292,180.005,77.494,180.005,78.787z"/>
			<path fill="#456C80" d="M207.726,64.771h9.343l6.454,18.291h0.079l6.493-18.291h9.304v28.03h-6.176V71.304h-0.08l-7.364,21.498
				h-4.711l-7.086-21.498h-0.079v21.498h-6.176V64.771z"/>
			<path fill="#456C80" d="M244.83,64.771h9.343l6.454,18.291h0.079l6.493-18.291h9.304v28.03h-6.177V71.304h-0.079l-7.363,21.498
				h-4.712l-7.086-21.498h-0.079v21.498h-6.176V64.771z"/>
			<path fill="#456C80" d="M305.494,81.993c0,1.663-0.252,3.194-0.752,4.593c-0.502,1.399-1.248,2.613-2.238,3.643
				c-0.988,1.029-2.223,1.835-3.702,2.415c-1.478,0.58-3.181,0.871-5.106,0.871c-1.954,0-3.669-0.291-5.147-0.871
				s-2.712-1.386-3.701-2.415c-0.99-1.029-1.736-2.243-2.237-3.643c-0.502-1.398-0.752-2.93-0.752-4.593V64.771h6.176v16.984
				c0,0.871,0.139,1.677,0.416,2.415c0.277,0.739,0.666,1.38,1.168,1.92c0.501,0.542,1.102,0.964,1.802,1.268
				c0.698,0.304,1.458,0.455,2.276,0.455c0.817,0,1.569-0.151,2.257-0.455c0.686-0.304,1.279-0.726,1.781-1.268
				c0.501-0.54,0.891-1.181,1.168-1.92c0.278-0.738,0.415-1.544,0.415-2.415V64.771h6.178V81.993z"/>
			<path fill="#456C80" d="M310.83,64.771h8.395l11.916,19.479h0.08V64.771h6.176v28.03h-8.076l-12.234-19.954h-0.08v19.954h-6.176
				V64.771z"/>
			<path fill="#456C80" d="M342.756,64.771h6.176v28.03h-6.176V64.771z"/>
			<path fill="#456C80" d="M372.674,72.057c-0.607-0.739-1.354-1.307-2.236-1.703c-0.885-0.396-1.908-0.594-3.068-0.594
				c-1.162,0-2.238,0.225-3.227,0.673c-0.99,0.449-1.848,1.076-2.574,1.881c-0.727,0.806-1.293,1.762-1.703,2.87
				c-0.408,1.108-0.613,2.311-0.613,3.604c0,1.319,0.205,2.527,0.613,3.622c0.41,1.096,0.971,2.046,1.684,2.851
				c0.713,0.806,1.551,1.432,2.514,1.881s2,0.673,3.107,0.673c1.268,0,2.389-0.264,3.365-0.792c0.977-0.527,1.783-1.267,2.416-2.217
				l5.146,3.84c-1.188,1.663-2.691,2.891-4.514,3.683c-1.82,0.791-3.695,1.188-5.621,1.188c-2.191,0-4.211-0.344-6.059-1.029
				c-1.848-0.687-3.443-1.669-4.789-2.95c-1.348-1.279-2.396-2.83-3.148-4.651s-1.129-3.854-1.129-6.097s0.377-4.276,1.129-6.098
				s1.801-3.371,3.148-4.651c1.346-1.28,2.941-2.264,4.789-2.95c1.848-0.686,3.867-1.029,6.059-1.029
				c0.791,0,1.615,0.073,2.475,0.218c0.857,0.146,1.701,0.376,2.533,0.693c0.832,0.316,1.629,0.739,2.395,1.267
				c0.766,0.528,1.451,1.175,2.059,1.94L372.674,72.057z"/>
			<path fill="#456C80" d="M390.74,64.771h5.107l12.193,28.03h-6.969l-2.414-5.938H387.77l-2.336,5.938h-6.809L390.74,64.771z
				 M393.115,72.927l-3.404,8.71h6.848L393.115,72.927z"/>
			<path fill="#456C80" d="M413.061,70.235h-7.998v-5.464h22.172v5.464h-7.998v22.566h-6.176V70.235z"/>
			<path fill="#456C80" d="M429.775,64.771h6.176v28.03h-6.176V64.771z"/>
			<path fill="#456C80" d="M439.857,78.787c0-2.243,0.377-4.276,1.129-6.098s1.801-3.371,3.148-4.651
				c1.346-1.28,2.941-2.264,4.789-2.95c1.848-0.686,3.867-1.029,6.059-1.029c2.189,0,4.209,0.344,6.057,1.029
				c1.848,0.687,3.445,1.67,4.791,2.95s2.395,2.83,3.146,4.651c0.754,1.821,1.129,3.854,1.129,6.098s-0.375,4.275-1.129,6.097
				c-0.752,1.821-1.801,3.372-3.146,4.651c-1.346,1.281-2.943,2.264-4.791,2.95c-1.848,0.686-3.867,1.029-6.057,1.029
				c-2.191,0-4.211-0.344-6.059-1.029c-1.848-0.687-3.443-1.669-4.789-2.95c-1.348-1.279-2.396-2.83-3.148-4.651
				S439.857,81.03,439.857,78.787z M446.271,78.787c0,1.319,0.205,2.527,0.613,3.622c0.41,1.096,0.996,2.046,1.762,2.851
				c0.766,0.806,1.684,1.432,2.752,1.881c1.07,0.449,2.264,0.673,3.584,0.673c1.318,0,2.514-0.224,3.582-0.673
				c1.07-0.449,1.986-1.075,2.752-1.881c0.766-0.805,1.352-1.755,1.762-2.851c0.408-1.095,0.613-2.303,0.613-3.622
				c0-1.293-0.205-2.495-0.613-3.604c-0.41-1.108-0.996-2.064-1.762-2.87c-0.766-0.805-1.682-1.432-2.752-1.881
				c-1.068-0.448-2.264-0.673-3.582-0.673c-1.32,0-2.514,0.225-3.584,0.673c-1.068,0.449-1.986,1.076-2.752,1.881
				c-0.766,0.806-1.352,1.762-1.762,2.87C446.477,76.292,446.271,77.494,446.271,78.787z"/>
			<path fill="#456C80" d="M473.994,64.771h8.393l11.916,19.479h0.08V64.771h6.176v28.03h-8.076l-12.234-19.954h-0.078v19.954
				h-6.176V64.771z"/>
		</g>
	</g>
	<g>
		<g>
			<path fill="#010202" d="M153.616,114.603h-1.857v-12.198h-3.777v-1.496h9.433v1.496h-3.799V114.603z"/>
			<path fill="#010202" d="M160.528,100.908h1.772v4.584h0.042c0.464-0.844,1.709-1.438,2.722-1.438
				c2.912,0,2.912,2.052,2.912,3.261v7.288h-1.772v-7.097c0-0.786-0.063-2.071-1.667-2.071c-0.95,0-2.237,0.575-2.237,2.071v7.097
				h-1.772V100.908z"/>
			<path fill="#010202" d="M173.204,109.654c0,1.572,0,3.951,2.174,3.951c1.688,0,1.92-1.611,1.92-2.379h1.772
				c0,1.094-0.717,3.645-3.798,3.645c-2.765,0-3.925-1.745-3.925-5.274c0-2.57,0.549-5.543,4.031-5.543
				c3.461,0,3.777,2.742,3.777,4.948v0.652H173.204z M177.298,108.388v-0.556c0-1.151-0.401-2.513-1.963-2.513
				c-1.857,0-2.068,2.071-2.068,2.686v0.383H177.298z"/>
			<path fill="#010202" d="M189.792,100.908h4.03c4.685,0,5.276,3.068,5.276,6.847c0,3.453-0.95,6.848-5.086,6.848h-4.22V100.908z
				 M191.649,113.222h1.941c3.208,0,3.566-2.992,3.566-5.447c0-2.646-0.19-5.485-3.566-5.485h-1.941V113.222z"/>
			<path fill="#010202" d="M202.889,100.908h1.772v1.841h-1.772V100.908z M202.889,104.322h1.772v10.28h-1.772V104.322z"/>
			<path fill="#010202" d="M215.933,113.95c0,3.069-1.562,4.182-3.841,4.182c-0.696,0-3.418,0-3.714-2.57h1.772
				c0.084,0.939,0.887,1.305,1.815,1.305c2.279,0,2.195-1.593,2.195-2.302v-1.343h-0.042c-0.379,0.863-1.435,1.381-2.553,1.381
				c-3.292,0-3.503-3.778-3.503-5.141c0-2.781,0.823-5.408,3.693-5.408c1.224,0,2.216,0.767,2.448,1.572h0.042v-1.304h1.688V113.95z
				 M209.919,109.462c0,1.669,0.274,3.76,2.047,3.76c1.92,0,2.3-1.649,2.3-3.76c0-1.994-0.38-4.027-2.279-4.027
				C210.341,105.435,209.919,107.007,209.919,109.462z"/>
			<path fill="#010202" d="M219.692,100.908h1.773v1.841h-1.773V100.908z M219.692,104.322h1.773v10.28h-1.773V104.322z"/>
			<path fill="#010202" d="M226,101.33h1.773v2.992h1.962v1.266h-1.962v6.598c0,0.825,0.232,1.151,1.161,1.151
				c0.38,0,0.591-0.039,0.781-0.058v1.323c-0.232,0.038-0.696,0.115-1.435,0.115c-1.836,0-2.279-0.69-2.279-2.033v-7.097h-1.646
				v-1.266H226V101.33z"/>
			<path fill="#010202" d="M232.479,107.429c0-2.34,1.098-3.375,3.799-3.375c3.439,0,3.439,1.879,3.439,2.953v5.735
				c0,0.422,0,0.824,0.549,0.824c0.232,0,0.337-0.038,0.422-0.096v1.151c-0.126,0.019-0.591,0.096-1.034,0.096
				c-0.675,0-1.52,0-1.604-1.323h-0.042c-0.569,0.92-1.667,1.477-2.722,1.477c-2.11,0-3.081-1.15-3.081-2.992
				c0-1.438,0.675-2.436,2.131-2.839l2.385-0.652c1.287-0.364,1.287-0.69,1.287-1.553c0-0.959-0.633-1.516-1.814-1.516
				c-1.941,0-1.941,1.649-1.941,2.014v0.096H232.479z M237.945,109.002c-0.654,0.633-2.216,0.768-3.018,1.208
				c-0.57,0.326-0.865,0.729-0.865,1.631c0,1.035,0.401,1.765,1.604,1.765c1.161,0,2.279-0.901,2.279-1.957V109.002z"/>
			<path fill="#010202" d="M243.713,100.908h1.772v13.694h-1.772V100.908z"/>
			<path fill="#010202" d="M256.418,100.908h7.787v1.496h-5.93v4.296h5.592v1.496h-5.592v6.406h-1.857V100.908z"/>
			<path fill="#010202" d="M267.464,100.908h1.772v1.841h-1.772V100.908z M267.464,104.322h1.772v10.28h-1.772V104.322z"/>
			<path fill="#010202" d="M272.986,104.322h1.772v1.534h0.042c0.507-0.979,1.182-1.803,2.448-1.803c0.358,0,0.611,0.038,0.78,0.114
				v1.573c-0.169-0.02-0.38-0.077-0.949-0.077c-0.887,0-2.321,0.729-2.321,2.437v6.502h-1.772V104.322z"/>
			<path fill="#010202" d="M285.881,107.333c0-1.304-0.38-2.014-1.667-2.014c-0.57,0-1.836,0.134-1.836,1.572
				c0,1.209,1.393,1.439,2.785,1.861c1.372,0.422,2.765,0.862,2.765,2.896c0,2.168-1.541,3.223-3.651,3.223
				c-3.841,0-3.883-2.59-3.883-3.645h1.772c0,1.247,0.38,2.379,2.11,2.379c0.57,0,1.879-0.25,1.879-1.707
				c0-1.381-1.394-1.669-2.765-2.091c-1.372-0.422-2.786-0.786-2.786-2.916c0-1.918,1.646-2.838,3.609-2.838
				c3.292,0,3.418,2.071,3.439,3.279H285.881z"/>
			<path fill="#010202" d="M291.865,101.33h1.772v2.992h1.963v1.266h-1.963v6.598c0,0.825,0.232,1.151,1.16,1.151
				c0.38,0,0.592-0.039,0.781-0.058v1.323c-0.232,0.038-0.696,0.115-1.435,0.115c-1.836,0-2.279-0.69-2.279-2.033v-7.097h-1.646
				v-1.266h1.646V101.33z"/>
			<path fill="#010202" d="M308.264,100.908h2.49l4.051,13.694h-1.941l-1.076-3.76h-4.812l-1.117,3.76h-1.941L308.264,100.908z
				 M307.355,109.462h4.051l-1.92-6.617h-0.041L307.355,109.462z"/>
			<path fill="#010202" d="M317.803,100.908h1.771v1.841h-1.771V100.908z M317.803,104.322h1.771v10.28h-1.771V104.322z"/>
			<path fill="#010202" d="M330.846,114.603h-1.688v-1.266h-0.043c-0.232,0.767-1.225,1.534-2.447,1.534
				c-2.68,0-3.693-2.167-3.693-5.409c0-2.147,0.379-5.408,3.566-5.408c1.014,0,2.09,0.556,2.49,1.438h0.041v-4.584h1.773V114.603z
				 M326.9,113.49c1.961,0,2.277-1.688,2.277-4.028c0-1.994-0.379-4.027-2.277-4.027c-1.646,0-2.068,1.572-2.068,4.027
				S325.254,113.49,326.9,113.49z"/>
			<path fill="#010202" d="M341.674,100.908h1.857v6.636h0.041l5.213-6.636h2.068l-4.559,5.715l4.938,7.979h-2.066l-4.074-6.598
				l-1.561,1.937v4.661h-1.857V100.908z"/>
			<path fill="#010202" d="M354.201,100.908h1.773v1.841h-1.773V100.908z M354.201,104.322h1.773v10.28h-1.773V104.322z"/>
			<path fill="#010202" d="M360.51,101.33h1.771v2.992h1.963v1.266h-1.963v6.598c0,0.825,0.232,1.151,1.16,1.151
				c0.381,0,0.592-0.039,0.781-0.058v1.323c-0.232,0.038-0.695,0.115-1.434,0.115c-1.836,0-2.279-0.69-2.279-2.033v-7.097h-1.646
				v-1.266h1.646V101.33z"/>
		</g>
	</g>
	<g>
		<g>
			<g>
				<g>
					<path fill="#DF2D38" d="M78.36,127.125c35.953-7.666,57.489-44.621,46.445-79.668L55.474,87.488L78.36,127.125"/>
				</g>
			</g>
			<path fill="#DF2D38" d="M96.54,12.238C70.764-2.646,38.788,2.976,19.479,24.047l69.528,40.138l22.832-39.54
				C107.539,19.843,102.423,15.632,96.54,12.238"/>
			<g>
				<g>
					<path fill="#DF2D38" d="M34.238,120.145c5.686,3.292,11.681,5.572,17.778,6.916V46.786H6.165
						C-2.855,74.217,8.237,105.137,34.238,120.145"/>
				</g>
			</g>
		</g>
		<circle fill="#FFFFFF" cx="65.66" cy="66.319" r="51.51"/>
		<circle fill="#456C80" cx="65.66" cy="66.319" r="48.312"/>
		<g opacity="0.2">
			<path fill="#FFFFFF" d="M56.336,87.757l56.274-32.491c-0.108-0.463-0.218-0.926-0.34-1.386L54.466,87.257l15.69,27.174
				c0.498-0.047,0.99-0.108,1.484-0.17L56.336,87.757z"/>
			<path fill="#FFFFFF" d="M104.791,38.117c-0.292-0.405-0.588-0.804-0.891-1.198L88.685,63.268L32.708,30.953
				c-0.349,0.324-0.694,0.65-1.033,0.985l57.51,33.201L104.791,38.117z"/>
			<path fill="#FFFFFF" d="M21.71,46.119c-0.21,0.455-0.423,0.909-0.62,1.371h30.167v64.999c0.453,0.143,0.913,0.263,1.371,0.391
				V46.119H21.71z"/>
		</g>
	</g>
	<path fill="#FFFFFF" d="M89.284,62.092V46.711c0-12.867-10.432-23.299-23.299-23.299c-12.868,0-23.3,10.432-23.3,23.299v15.381
		c-1.957,0.637-3.914,1.299-5.825,2.096v34.948c18.641,7.764,39.608,7.764,58.249,0V64.188
		C93.197,63.391,91.24,62.729,89.284,62.092z M63.584,96.793c0,0.633-0.38,1.202-0.963,1.442c-0.193,0.08-0.397,0.119-0.597,0.119
		c-0.407,0-0.806-0.158-1.104-0.457l-8.07-8.071h-4.015c-0.862,0-1.562-0.699-1.562-1.561v-13.86c0-0.861,0.7-1.561,1.562-1.561
		h4.015l8.07-8.07c0.445-0.445,1.117-0.579,1.701-0.338c0.583,0.241,0.963,0.812,0.963,1.441V96.793z M48.51,60.494V46.711
		c0-9.636,7.839-17.475,17.475-17.475c9.636,0,17.474,7.839,17.474,17.475v13.783C71.963,57.764,60.012,57.764,48.51,60.494z
		 M67.702,88.7c-0.371,0-0.744-0.13-1.043-0.398c-0.642-0.577-0.695-1.563-0.119-2.206c4.224-4.705,0.174-9.326,0-9.521
		c-0.576-0.641-0.523-1.628,0.119-2.204c0.64-0.577,1.627-0.522,2.205,0.119c2.125,2.368,4.861,8.276,0.001,13.692
		C68.555,88.526,68.13,88.7,67.702,88.7z M72.637,93.053c-0.372,0-0.744-0.131-1.042-0.398c-0.643-0.575-0.696-1.563-0.119-2.205
		c8.086-9.009,0.333-17.854,0-18.226c-0.576-0.643-0.523-1.629,0.119-2.205c0.641-0.577,1.627-0.522,2.204,0.119
		c0.101,0.112,9.936,11.327,0.002,22.397C73.491,92.879,73.066,93.053,72.637,93.053z M78.953,95.795
		c-0.31,0.344-0.735,0.52-1.164,0.52c-0.372,0-0.744-0.133-1.042-0.4c-0.642-0.576-0.695-1.563-0.119-2.204
		c4.605-5.132,6.012-10.836,4.181-16.956c-1.389-4.643-4.152-7.761-4.181-7.791c-0.576-0.642-0.522-1.629,0.119-2.204
		c0.639-0.575,1.627-0.523,2.204,0.119c0.132,0.147,3.263,3.675,4.85,8.979C85.289,80.831,85.655,88.326,78.953,95.795z"/>
</g>
</svg>
