<?xml version="1.0" encoding="utf-8"?>
<!-- Generator: Adobe Illustrator 16.0.0, SVG Export Plug-In . SVG Version: 6.00 Build 0)  -->
<!DOCTYPE svg PUBLIC "-//W3C//DTD SVG 1.1//EN" "http://www.w3.org/Graphics/SVG/1.1/DTD/svg11.dtd">
<svg version="1.1" id="Calque_1" xmlns="http://www.w3.org/2000/svg" xmlns:xlink="http://www.w3.org/1999/xlink" x="0px" y="0px"
	 width="506px" height="133px" viewBox="0 0 506 133" enable-background="new 0 0 506 133" xml:space="preserve">
<g>
	<g>
		<g>
			<path fill="#456C80" d="M149.611,26.761h6.176v22.328h11.442v5.701h-17.618V26.761z"/>
			<path fill="#456C80" d="M168.23,40.775c0-2.243,0.376-4.276,1.128-6.097c0.752-1.821,1.801-3.371,3.147-4.652
				c1.346-1.279,2.942-2.263,4.791-2.949c1.847-0.686,3.866-1.029,6.057-1.029c2.19,0,4.209,0.344,6.058,1.029
				c1.847,0.687,3.444,1.67,4.79,2.949c1.346,1.281,2.396,2.831,3.147,4.652c0.752,1.82,1.128,3.854,1.128,6.097
				s-0.376,4.276-1.128,6.097c-0.752,1.821-1.801,3.373-3.147,4.652c-1.346,1.28-2.943,2.264-4.79,2.949
				c-1.848,0.686-3.867,1.029-6.058,1.029c-2.191,0-4.21-0.344-6.057-1.029c-1.848-0.686-3.445-1.669-4.791-2.949
				c-1.346-1.279-2.396-2.831-3.147-4.652C168.606,45.052,168.23,43.019,168.23,40.775z M174.644,40.775
				c0,1.32,0.204,2.528,0.614,3.622c0.409,1.096,0.996,2.047,1.762,2.852c0.765,0.805,1.683,1.432,2.751,1.88
				c1.069,0.449,2.263,0.673,3.583,0.673c1.319,0,2.514-0.224,3.583-0.673c1.069-0.448,1.986-1.075,2.751-1.88
				c0.765-0.805,1.353-1.756,1.762-2.852c0.409-1.094,0.614-2.302,0.614-3.622c0-1.293-0.205-2.494-0.614-3.603
				c-0.409-1.109-0.997-2.064-1.762-2.871c-0.766-0.805-1.683-1.431-2.751-1.88c-1.069-0.448-2.264-0.673-3.583-0.673
				c-1.32,0-2.514,0.225-3.583,0.673c-1.069,0.449-1.986,1.075-2.751,1.88c-0.766,0.807-1.353,1.762-1.762,2.871
				C174.848,38.281,174.644,39.482,174.644,40.775z"/>
			<path fill="#456C80" d="M215.818,33.609c-0.502-0.634-1.182-1.102-2.039-1.405c-0.858-0.303-1.67-0.455-2.435-0.455
				c-0.449,0-0.911,0.053-1.386,0.158s-0.924,0.271-1.346,0.494c-0.423,0.225-0.766,0.521-1.029,0.892
				c-0.264,0.37-0.396,0.818-0.396,1.346c0,0.845,0.316,1.491,0.95,1.94c0.633,0.449,1.431,0.831,2.395,1.148
				c0.963,0.316,2,0.633,3.108,0.949s2.144,0.766,3.108,1.346c0.963,0.582,1.762,1.36,2.395,2.336c0.634,0.978,0.95,2.283,0.95,3.92
				c0,1.558-0.291,2.917-0.871,4.078c-0.581,1.162-1.366,2.125-2.356,2.891s-2.138,1.332-3.444,1.701
				c-1.307,0.37-2.686,0.555-4.137,0.555c-1.821,0-3.511-0.277-5.067-0.831c-1.558-0.554-3.009-1.451-4.355-2.692l4.395-4.83
				c0.633,0.846,1.431,1.498,2.395,1.96c0.963,0.462,1.96,0.692,2.989,0.692c0.501,0,1.009-0.059,1.524-0.178
				s0.977-0.297,1.386-0.535c0.409-0.236,0.739-0.54,0.99-0.91c0.25-0.369,0.376-0.805,0.376-1.307c0-0.844-0.324-1.51-0.97-1.999
				c-0.647-0.488-1.458-0.903-2.435-1.247c-0.977-0.343-2.033-0.686-3.167-1.029c-1.135-0.343-2.191-0.805-3.167-1.386
				c-0.977-0.58-1.788-1.347-2.435-2.296c-0.647-0.951-0.97-2.204-0.97-3.762c0-1.504,0.297-2.824,0.891-3.959
				s1.386-2.084,2.375-2.851c0.99-0.765,2.131-1.339,3.424-1.722c1.293-0.383,2.626-0.574,3.999-0.574
				c1.583,0,3.114,0.225,4.592,0.673c1.478,0.449,2.811,1.201,3.999,2.257L215.818,33.609z"/>
			<path fill="#456C80" d="M230.121,32.224h-7.997v-5.463h22.17v5.463h-7.997V54.79h-6.176V32.224z"/>
			<path fill="#456C80" d="M279.846,48.179l6.256,6.611h-7.641l-2.336-2.652c-1.162,1.188-2.41,2.046-3.742,2.574
				c-1.332,0.527-2.83,0.791-4.494,0.791c-1.266,0-2.494-0.172-3.682-0.515s-2.25-0.864-3.187-1.563
				c-0.937-0.699-1.683-1.577-2.237-2.633s-0.832-2.283-0.832-3.682c0-0.897,0.152-1.748,0.456-2.555
				c0.303-0.805,0.726-1.537,1.267-2.197c0.541-0.658,1.168-1.232,1.88-1.722c0.713-0.487,1.492-0.877,2.336-1.168
				c-0.449-0.501-0.865-0.976-1.246-1.425c-0.384-0.449-0.713-0.924-0.99-1.426c-0.277-0.501-0.489-1.029-0.634-1.584
				c-0.145-0.554-0.218-1.174-0.218-1.86c0-1.267,0.244-2.349,0.732-3.246c0.488-0.897,1.141-1.636,1.959-2.218
				c0.818-0.58,1.756-1.002,2.812-1.267c1.055-0.263,2.137-0.396,3.246-0.396c1.082,0,2.111,0.139,3.088,0.416
				s1.842,0.699,2.594,1.267s1.352,1.28,1.801,2.138s0.674,1.881,0.674,3.068c0,0.845-0.139,1.623-0.416,2.336
				s-0.654,1.379-1.129,1.999s-1.023,1.175-1.643,1.663c-0.621,0.488-1.287,0.918-2,1.287l3.604,3.84l2.73-3.722h6.889
				L279.846,48.179z M267.573,42.834c-0.395,0.237-0.785,0.481-1.168,0.732s-0.725,0.528-1.029,0.831
				c-0.303,0.305-0.547,0.654-0.732,1.05c-0.184,0.396-0.277,0.858-0.277,1.386s0.105,1.003,0.318,1.426
				c0.211,0.422,0.486,0.778,0.83,1.068c0.344,0.291,0.746,0.521,1.209,0.693c0.461,0.172,0.93,0.257,1.404,0.257
				c0.924,0,1.723-0.198,2.395-0.595c0.674-0.395,1.34-0.883,2-1.465L267.573,42.834z M269.473,30.798
				c-0.766,0-1.412,0.238-1.939,0.713c-0.527,0.476-0.791,1.109-0.791,1.9c0,0.344,0.078,0.68,0.236,1.01s0.35,0.647,0.574,0.95
				c0.225,0.304,0.475,0.588,0.752,0.852c0.277,0.265,0.535,0.501,0.773,0.712c0.316-0.184,0.658-0.401,1.029-0.652
				c0.369-0.251,0.713-0.527,1.029-0.832c0.316-0.303,0.58-0.633,0.791-0.99c0.211-0.355,0.316-0.732,0.316-1.127
				c0-0.818-0.27-1.445-0.811-1.881S270.239,30.798,269.473,30.798z"/>
			<path fill="#456C80" d="M314.764,33.609c-0.5-0.634-1.182-1.102-2.039-1.405c-0.857-0.303-1.668-0.455-2.434-0.455
				c-0.449,0-0.91,0.053-1.387,0.158c-0.475,0.105-0.924,0.271-1.346,0.494c-0.422,0.225-0.766,0.521-1.029,0.892
				s-0.396,0.818-0.396,1.346c0,0.845,0.318,1.491,0.951,1.94s1.432,0.831,2.395,1.148c0.963,0.316,2,0.633,3.109,0.949
				c1.107,0.316,2.143,0.766,3.107,1.346c0.963,0.582,1.762,1.36,2.395,2.336c0.633,0.978,0.951,2.283,0.951,3.92
				c0,1.558-0.291,2.917-0.871,4.078c-0.582,1.162-1.367,2.125-2.355,2.891c-0.99,0.766-2.139,1.332-3.445,1.701
				c-1.307,0.37-2.686,0.555-4.137,0.555c-1.822,0-3.512-0.277-5.068-0.831s-3.008-1.451-4.355-2.692l4.394-4.83
				c0.635,0.846,1.432,1.498,2.396,1.96c0.963,0.462,1.959,0.692,2.988,0.692c0.502,0,1.01-0.059,1.525-0.178
				c0.514-0.119,0.975-0.297,1.385-0.535c0.408-0.236,0.738-0.54,0.99-0.91c0.25-0.369,0.375-0.805,0.375-1.307
				c0-0.844-0.322-1.51-0.969-1.999c-0.648-0.488-1.459-0.903-2.436-1.247c-0.977-0.343-2.033-0.686-3.166-1.029
				c-1.137-0.343-2.191-0.805-3.168-1.386c-0.977-0.58-1.789-1.347-2.436-2.296c-0.646-0.951-0.969-2.204-0.969-3.762
				c0-1.504,0.297-2.824,0.891-3.959s1.385-2.084,2.375-2.851c0.99-0.765,2.131-1.339,3.424-1.722s2.627-0.574,4-0.574
				c1.582,0,3.113,0.225,4.592,0.673c1.479,0.449,2.811,1.201,3.998,2.257L314.764,33.609z"/>
			<path fill="#456C80" d="M329.068,32.224h-7.998v-5.463h22.172v5.463h-7.998V54.79h-6.176V32.224z"/>
			<path fill="#456C80" d="M343.988,40.775c0-2.243,0.377-4.276,1.129-6.097c0.752-1.821,1.801-3.371,3.148-4.652
				c1.346-1.279,2.941-2.263,4.789-2.949c1.848-0.686,3.867-1.029,6.059-1.029c2.189,0,4.209,0.344,6.057,1.029
				c1.848,0.687,3.445,1.67,4.791,2.949c1.346,1.281,2.395,2.831,3.146,4.652c0.754,1.82,1.129,3.854,1.129,6.097
				s-0.375,4.276-1.129,6.097c-0.752,1.821-1.801,3.373-3.146,4.652c-1.346,1.28-2.943,2.264-4.791,2.949s-3.867,1.029-6.057,1.029
				c-2.191,0-4.211-0.344-6.059-1.029s-3.443-1.669-4.789-2.949c-1.348-1.279-2.396-2.831-3.148-4.652
				C344.365,45.052,343.988,43.019,343.988,40.775z M350.402,40.775c0,1.32,0.205,2.528,0.613,3.622
				c0.41,1.096,0.996,2.047,1.762,2.852s1.684,1.432,2.752,1.88c1.07,0.449,2.264,0.673,3.584,0.673
				c1.318,0,2.514-0.224,3.582-0.673c1.07-0.448,1.986-1.075,2.752-1.88s1.352-1.756,1.762-2.852
				c0.408-1.094,0.613-2.302,0.613-3.622c0-1.293-0.205-2.494-0.613-3.603c-0.41-1.109-0.996-2.064-1.762-2.871
				c-0.766-0.805-1.682-1.431-2.752-1.88c-1.068-0.448-2.264-0.673-3.582-0.673c-1.32,0-2.514,0.225-3.584,0.673
				c-1.068,0.449-1.986,1.075-2.752,1.88c-0.766,0.807-1.352,1.762-1.762,2.871C350.607,38.281,350.402,39.482,350.402,40.775z"/>
			<path fill="#456C80" d="M378.234,26.761h6.178v22.328h11.441v5.701h-17.619V26.761z"/>
			<path fill="#456C80" d="M398.658,26.761h19.043v5.701h-12.865v5.226h12.154v5.7h-12.154v5.701h13.578v5.701h-19.756V26.761z"/>
			<path fill="#456C80" d="M423,26.761h8.393l11.916,19.479h0.08V26.761h6.176V54.79h-8.076l-12.234-19.953h-0.078V54.79H423V26.761
				z"/>
			<path fill="#456C80" d="M149.374,62.488h9.264c2.243,0,4.375,0.251,6.394,0.753c2.019,0.501,3.781,1.312,5.285,2.434
				c1.504,1.123,2.698,2.58,3.583,4.375c0.884,1.795,1.326,3.973,1.326,6.533c0,2.27-0.429,4.27-1.287,5.998
				c-0.858,1.729-2.013,3.181-3.464,4.354c-1.452,1.175-3.127,2.065-5.028,2.673s-3.894,0.91-5.978,0.91h-10.096V62.488z
				 M155.55,84.817h3.207c1.425,0,2.751-0.145,3.979-0.436c1.228-0.29,2.29-0.771,3.187-1.445c0.897-0.673,1.604-1.557,2.118-2.652
				c0.515-1.095,0.772-2.435,0.772-4.018c0-1.373-0.257-2.567-0.772-3.584c-0.515-1.016-1.208-1.854-2.079-2.514
				s-1.894-1.154-3.068-1.484c-1.175-0.33-2.409-0.495-3.702-0.495h-3.642V84.817z"/>
			<path fill="#456C80" d="M179.205,62.488h19.043v5.701h-12.867v5.226h12.154v5.701h-12.154v5.701h13.58v5.701h-19.756V62.488z"/>
			<path fill="#456C80" d="M200.694,62.488h7.047l6.928,18.37h0.079l7.047-18.37h6.611l-11.56,28.03h-4.949L200.694,62.488z"/>
			<path fill="#456C80" d="M230.834,62.488h6.176v28.03h-6.176V62.488z"/>
			<path fill="#456C80" d="M260.752,69.772c-0.607-0.738-1.353-1.307-2.237-1.701c-0.885-0.396-1.907-0.595-3.068-0.595
				c-1.162,0-2.237,0.225-3.227,0.673c-0.99,0.449-1.848,1.076-2.574,1.881c-0.726,0.806-1.293,1.762-1.702,2.871
				c-0.41,1.107-0.614,2.309-0.614,3.602c0,1.32,0.204,2.528,0.614,3.623c0.409,1.096,0.97,2.046,1.683,2.851
				c0.712,0.806,1.55,1.433,2.514,1.88c0.963,0.449,2,0.674,3.108,0.674c1.267,0,2.389-0.264,3.365-0.792s1.782-1.267,2.415-2.218
				l5.147,3.841c-1.188,1.663-2.691,2.89-4.514,3.683c-1.821,0.791-3.695,1.188-5.622,1.188c-2.191,0-4.21-0.344-6.057-1.029
				c-1.848-0.687-3.445-1.67-4.791-2.949c-1.346-1.28-2.396-2.832-3.147-4.652c-0.752-1.821-1.128-3.854-1.128-6.098
				c0-2.242,0.376-4.275,1.128-6.097c0.752-1.821,1.801-3.371,3.147-4.651c1.346-1.28,2.942-2.264,4.791-2.949
				c1.847-0.687,3.866-1.029,6.057-1.029c0.792,0,1.616,0.072,2.475,0.217c0.857,0.146,1.702,0.377,2.534,0.693
				c0.832,0.316,1.629,0.738,2.395,1.267s1.451,1.175,2.059,1.94L260.752,69.772z"/>
			<path fill="#456C80" d="M268.983,62.488h19.043v5.701H275.16v5.226h12.154v5.701H275.16v5.701h13.579v5.701h-19.756V62.488z"/>
			<path fill="#456C80" d="M307.121,69.337c-0.502-0.633-1.182-1.102-2.039-1.404c-0.857-0.304-1.67-0.456-2.436-0.456
				c-0.449,0-0.91,0.054-1.385,0.159s-0.924,0.271-1.346,0.494c-0.424,0.225-0.766,0.521-1.03,0.891
				c-0.265,0.37-0.396,0.818-0.396,1.346c0,0.846,0.317,1.492,0.95,1.94c0.635,0.449,1.432,0.831,2.396,1.148
				c0.963,0.316,1.998,0.634,3.107,0.95s2.145,0.766,3.107,1.346c0.963,0.581,1.762,1.359,2.396,2.336
				c0.633,0.977,0.949,2.283,0.949,3.92c0,1.557-0.291,2.916-0.871,4.078c-0.58,1.161-1.365,2.125-2.355,2.89
				c-0.99,0.766-2.139,1.333-3.443,1.702c-1.307,0.369-2.688,0.555-4.139,0.555c-1.821,0-3.51-0.277-5.067-0.832
				c-1.558-0.554-3.009-1.451-4.355-2.691l4.395-4.83c0.634,0.845,1.432,1.498,2.396,1.959c0.963,0.463,1.96,0.693,2.99,0.693
				c0.5,0,1.01-0.06,1.523-0.178c0.516-0.119,0.977-0.297,1.387-0.535c0.408-0.237,0.738-0.541,0.988-0.91
				c0.252-0.369,0.377-0.805,0.377-1.307c0-0.845-0.324-1.511-0.971-2c-0.646-0.488-1.459-0.903-2.434-1.246
				c-0.977-0.344-2.033-0.687-3.167-1.029c-1.136-0.344-2.191-0.805-3.168-1.387c-0.977-0.58-1.788-1.346-2.435-2.296
				c-0.647-0.95-0.97-2.204-0.97-3.761c0-1.505,0.297-2.824,0.891-3.959s1.386-2.085,2.375-2.852
				c0.99-0.765,2.132-1.338,3.425-1.722c1.293-0.382,2.625-0.573,3.999-0.573c1.584,0,3.115,0.224,4.594,0.672
				c1.477,0.449,2.811,1.201,3.998,2.258L307.121,69.337z"/>
		</g>
	</g>
	<g>
		<g>
			<path fill="#010202" d="M153.616,112.319h-1.857V100.12h-3.777v-1.496h9.433v1.496h-3.799V112.319z"/>
			<path fill="#010202" d="M160.528,98.624h1.772v4.584h0.042c0.464-0.844,1.709-1.438,2.722-1.438c2.912,0,2.912,2.052,2.912,3.261
				v7.289h-1.772v-7.098c0-0.786-0.063-2.07-1.667-2.07c-0.95,0-2.237,0.574-2.237,2.07v7.098h-1.772V98.624z"/>
			<path fill="#010202" d="M173.204,107.37c0,1.572,0,3.951,2.174,3.951c1.688,0,1.92-1.611,1.92-2.379h1.772
				c0,1.094-0.717,3.645-3.798,3.645c-2.765,0-3.925-1.745-3.925-5.273c0-2.57,0.549-5.544,4.031-5.544
				c3.461,0,3.777,2.743,3.777,4.948v0.652H173.204z M177.298,106.104v-0.557c0-1.15-0.401-2.512-1.963-2.512
				c-1.857,0-2.068,2.07-2.068,2.685v0.384H177.298z"/>
			<path fill="#010202" d="M189.792,98.624h4.03c4.685,0,5.276,3.068,5.276,6.848c0,3.452-0.95,6.848-5.086,6.848h-4.22V98.624z
				 M191.649,110.938h1.941c3.208,0,3.566-2.992,3.566-5.447c0-2.647-0.19-5.486-3.566-5.486h-1.941V110.938z"/>
			<path fill="#010202" d="M202.889,98.624h1.772v1.842h-1.772V98.624z M202.889,102.038h1.772v10.281h-1.772V102.038z"/>
			<path fill="#010202" d="M215.933,111.667c0,3.068-1.562,4.182-3.841,4.182c-0.696,0-3.418,0-3.714-2.57h1.772
				c0.084,0.939,0.887,1.304,1.815,1.304c2.279,0,2.195-1.592,2.195-2.302v-1.342h-0.042c-0.379,0.862-1.435,1.381-2.553,1.381
				c-3.292,0-3.503-3.779-3.503-5.141c0-2.781,0.823-5.409,3.693-5.409c1.224,0,2.216,0.768,2.448,1.573h0.042v-1.305h1.688V111.667
				z M209.919,107.179c0,1.668,0.274,3.76,2.047,3.76c1.92,0,2.3-1.65,2.3-3.76c0-1.995-0.38-4.027-2.279-4.027
				C210.341,103.151,209.919,104.724,209.919,107.179z"/>
			<path fill="#010202" d="M219.692,98.624h1.773v1.842h-1.773V98.624z M219.692,102.038h1.773v10.281h-1.773V102.038z"/>
			<path fill="#010202" d="M226,99.046h1.773v2.992h1.962v1.266h-1.962v6.599c0,0.825,0.232,1.15,1.161,1.15
				c0.38,0,0.591-0.038,0.781-0.058v1.324c-0.232,0.038-0.696,0.115-1.435,0.115c-1.836,0-2.279-0.691-2.279-2.033v-7.098h-1.646
				v-1.266H226V99.046z"/>
			<path fill="#010202" d="M232.479,105.146c0-2.34,1.098-3.376,3.799-3.376c3.439,0,3.439,1.88,3.439,2.954v5.734
				c0,0.422,0,0.825,0.549,0.825c0.232,0,0.337-0.038,0.422-0.097v1.151c-0.126,0.02-0.591,0.097-1.034,0.097
				c-0.675,0-1.52,0-1.604-1.324h-0.042c-0.569,0.921-1.667,1.477-2.722,1.477c-2.11,0-3.081-1.15-3.081-2.992
				c0-1.438,0.675-2.436,2.131-2.838l2.385-0.652c1.287-0.364,1.287-0.69,1.287-1.554c0-0.959-0.633-1.515-1.814-1.515
				c-1.941,0-1.941,1.648-1.941,2.014v0.096H232.479z M237.945,106.718c-0.654,0.633-2.216,0.768-3.018,1.209
				c-0.57,0.326-0.865,0.729-0.865,1.631c0,1.035,0.401,1.764,1.604,1.764c1.161,0,2.279-0.901,2.279-1.956V106.718z"/>
			<path fill="#010202" d="M243.713,98.624h1.772v13.695h-1.772V98.624z"/>
			<path fill="#010202" d="M256.418,98.624h7.787v1.496h-5.93v4.297h5.592v1.496h-5.592v6.406h-1.857V98.624z"/>
			<path fill="#010202" d="M267.464,98.624h1.772v1.842h-1.772V98.624z M267.464,102.038h1.772v10.281h-1.772V102.038z"/>
			<path fill="#010202" d="M272.986,102.038h1.772v1.535h0.042c0.507-0.979,1.182-1.804,2.448-1.804c0.358,0,0.611,0.038,0.78,0.115
				v1.573c-0.169-0.02-0.38-0.077-0.949-0.077c-0.887,0-2.321,0.729-2.321,2.437v6.502h-1.772V102.038z"/>
			<path fill="#010202" d="M285.881,105.05c0-1.305-0.38-2.014-1.667-2.014c-0.57,0-1.836,0.134-1.836,1.572
				c0,1.209,1.393,1.438,2.785,1.86c1.372,0.422,2.765,0.863,2.765,2.896c0,2.167-1.541,3.222-3.651,3.222
				c-3.841,0-3.883-2.589-3.883-3.645h1.772c0,1.248,0.38,2.379,2.11,2.379c0.57,0,1.879-0.249,1.879-1.707
				c0-1.381-1.394-1.668-2.765-2.09c-1.372-0.422-2.786-0.787-2.786-2.916c0-1.918,1.646-2.839,3.609-2.839
				c3.292,0,3.418,2.071,3.439,3.28H285.881z"/>
			<path fill="#010202" d="M291.865,99.046h1.772v2.992h1.963v1.266h-1.963v6.599c0,0.825,0.232,1.15,1.16,1.15
				c0.38,0,0.592-0.038,0.781-0.058v1.324c-0.232,0.038-0.696,0.115-1.435,0.115c-1.836,0-2.279-0.691-2.279-2.033v-7.098h-1.646
				v-1.266h1.646V99.046z"/>
			<path fill="#010202" d="M308.264,98.624h2.49l4.051,13.695h-1.941l-1.076-3.76h-4.812l-1.117,3.76h-1.941L308.264,98.624z
				 M307.355,107.179h4.051l-1.92-6.617h-0.041L307.355,107.179z"/>
			<path fill="#010202" d="M317.803,98.624h1.771v1.842h-1.771V98.624z M317.803,102.038h1.771v10.281h-1.771V102.038z"/>
			<path fill="#010202" d="M330.846,112.319h-1.688v-1.267h-0.043c-0.232,0.768-1.225,1.534-2.447,1.534
				c-2.68,0-3.693-2.167-3.693-5.408c0-2.148,0.379-5.409,3.566-5.409c1.014,0,2.09,0.556,2.49,1.438h0.041v-4.584h1.773V112.319z
				 M326.9,111.206c1.961,0,2.277-1.688,2.277-4.027c0-1.995-0.379-4.027-2.277-4.027c-1.646,0-2.068,1.572-2.068,4.027
				S325.254,111.206,326.9,111.206z"/>
			<path fill="#010202" d="M341.674,98.624h1.857v6.637h0.041l5.213-6.637h2.068l-4.559,5.716l4.938,7.979h-2.066l-4.074-6.599
				l-1.561,1.938v4.661h-1.857V98.624z"/>
			<path fill="#010202" d="M354.201,98.624h1.773v1.842h-1.773V98.624z M354.201,102.038h1.773v10.281h-1.773V102.038z"/>
			<path fill="#010202" d="M360.51,99.046h1.771v2.992h1.963v1.266h-1.963v6.599c0,0.825,0.232,1.15,1.16,1.15
				c0.381,0,0.592-0.038,0.781-0.058v1.324c-0.232,0.038-0.695,0.115-1.434,0.115c-1.836,0-2.279-0.691-2.279-2.033v-7.098h-1.646
				v-1.266h1.646V99.046z"/>
		</g>
	</g>
	<g>
		<g>
			<g>
				<g>
					<path fill="#DF2D38" d="M78.36,127.124c35.953-7.666,57.489-44.621,46.445-79.668L55.474,87.487L78.36,127.124"/>
				</g>
			</g>
			<path fill="#DF2D38" d="M96.54,12.237C70.764-2.646,38.788,2.976,19.479,24.046l69.528,40.139l22.832-39.539
				C107.539,19.843,102.423,15.63,96.54,12.237"/>
			<g>
				<g>
					<path fill="#DF2D38" d="M34.238,120.144c5.686,3.292,11.681,5.572,17.778,6.916V46.786H6.165
						C-2.855,74.217,8.237,105.137,34.238,120.144"/>
				</g>
			</g>
		</g>
		<circle fill="#FFFFFF" cx="65.66" cy="66.32" r="51.51"/>
		<circle fill="#456C80" cx="65.66" cy="66.32" r="48.312"/>
		<g opacity="0.2">
			<path fill="#FFFFFF" d="M56.336,87.757l56.274-32.492c-0.108-0.463-0.218-0.926-0.34-1.385L54.466,87.255l15.69,27.175
				c0.498-0.046,0.99-0.108,1.484-0.169L56.336,87.757z"/>
			<path fill="#FFFFFF" d="M104.791,38.116c-0.292-0.404-0.588-0.803-0.891-1.198l-15.214,26.35L32.708,30.953
				c-0.349,0.323-0.694,0.651-1.033,0.985l57.51,33.201L104.791,38.116z"/>
			<path fill="#FFFFFF" d="M21.71,46.12c-0.21,0.455-0.423,0.907-0.62,1.369h30.167v64.999c0.453,0.142,0.913,0.262,1.371,0.391
				V46.12H21.71z"/>
		</g>
	</g>
	<path fill="#FFFFFF" d="M65.691,35.689c11.092,0,22.011,5.106,22.011,17.325c0,11.269-12.913,15.602-15.685,19.673
		c-2.08,3.028-1.385,7.282-7.105,7.282c-3.726,0-5.547-3.031-5.547-5.803c0-10.318,15.16-12.654,15.16-21.15
		c0-4.677-3.113-7.449-8.315-7.449c-11.09,0-6.761,11.436-15.16,11.436c-3.031,0-5.636-1.82-5.636-5.284
		C45.415,43.22,55.12,35.689,65.691,35.689z M65.261,85.597c3.895,0,7.105,3.203,7.105,7.107c0,3.907-3.207,7.107-7.105,7.107
		c-3.9,0-7.109-3.199-7.109-7.107C58.151,88.8,61.361,85.597,65.261,85.597z"/>
</g>
</svg>
