<?xml version="1.0" encoding="utf-8"?>
<!-- Generator: Adobe Illustrator 16.0.0, SVG Export Plug-In . SVG Version: 6.00 Build 0)  -->
<!DOCTYPE svg PUBLIC "-//W3C//DTD SVG 1.1//EN" "http://www.w3.org/Graphics/SVG/1.1/DTD/svg11.dtd">
<svg version="1.1" id="Calque_1" xmlns="http://www.w3.org/2000/svg" xmlns:xlink="http://www.w3.org/1999/xlink" x="0px" y="0px"
	 width="506px" height="133px" viewBox="0 0 506 133" enable-background="new 0 0 506 133" xml:space="preserve">
<g>
	<g>
		<g>
			<path fill="#456C80" d="M158.598,26.76h5.107l12.194,28.03h-6.968l-2.415-5.938h-10.887l-2.336,5.938h-6.81L158.598,26.76z
				 M160.974,34.915l-3.405,8.711h6.849L160.974,34.915z"/>
			<path fill="#456C80" d="M195.251,34.044c-0.607-0.738-1.353-1.307-2.237-1.701c-0.885-0.396-1.907-0.595-3.068-0.595
				c-1.162,0-2.237,0.225-3.227,0.673c-0.99,0.449-1.848,1.076-2.574,1.881c-0.726,0.806-1.293,1.762-1.702,2.871
				c-0.41,1.107-0.614,2.309-0.614,3.602c0,1.32,0.204,2.528,0.614,3.623c0.409,1.096,0.97,2.046,1.683,2.851
				c0.712,0.806,1.55,1.433,2.514,1.88c0.963,0.449,2,0.674,3.108,0.674c1.267,0,2.389-0.264,3.365-0.792s1.782-1.267,2.415-2.218
				l5.147,3.841c-1.188,1.663-2.692,2.89-4.513,3.683c-1.821,0.791-3.696,1.188-5.622,1.188c-2.191,0-4.21-0.344-6.057-1.029
				c-1.848-0.687-3.445-1.67-4.791-2.949c-1.346-1.28-2.396-2.832-3.147-4.652c-0.752-1.821-1.128-3.854-1.128-6.098
				c0-2.242,0.376-4.275,1.128-6.097c0.752-1.821,1.801-3.371,3.147-4.651c1.346-1.28,2.942-2.264,4.791-2.949
				c1.847-0.687,3.866-1.029,6.057-1.029c0.792,0,1.616,0.072,2.475,0.217c0.857,0.146,1.702,0.377,2.534,0.693
				s1.629,0.738,2.395,1.267c0.765,0.528,1.451,1.175,2.059,1.94L195.251,34.044z"/>
			<path fill="#456C80" d="M220.973,34.044c-0.607-0.738-1.353-1.307-2.237-1.701c-0.885-0.396-1.907-0.595-3.068-0.595
				c-1.162,0-2.237,0.225-3.227,0.673c-0.99,0.449-1.848,1.076-2.574,1.881c-0.726,0.806-1.293,1.762-1.702,2.871
				c-0.41,1.107-0.614,2.309-0.614,3.602c0,1.32,0.204,2.528,0.614,3.623c0.409,1.096,0.97,2.046,1.683,2.851
				c0.712,0.806,1.55,1.433,2.514,1.88c0.963,0.449,2,0.674,3.108,0.674c1.267,0,2.389-0.264,3.365-0.792s1.782-1.267,2.415-2.218
				l5.147,3.841c-1.188,1.663-2.692,2.89-4.513,3.683c-1.821,0.791-3.696,1.188-5.622,1.188c-2.191,0-4.21-0.344-6.057-1.029
				c-1.848-0.687-3.445-1.67-4.791-2.949c-1.346-1.28-2.396-2.832-3.147-4.652c-0.752-1.821-1.128-3.854-1.128-6.098
				c0-2.242,0.376-4.275,1.128-6.097c0.752-1.821,1.801-3.371,3.147-4.651c1.346-1.28,2.942-2.264,4.791-2.949
				c1.847-0.687,3.866-1.029,6.057-1.029c0.792,0,1.616,0.072,2.475,0.217c0.857,0.146,1.702,0.377,2.534,0.693
				s1.629,0.738,2.395,1.267c0.765,0.528,1.451,1.175,2.059,1.94L220.973,34.044z"/>
			<path fill="#456C80" d="M226.86,40.774c0-2.242,0.376-4.275,1.128-6.097c0.752-1.821,1.801-3.371,3.147-4.651
				c1.346-1.28,2.942-2.264,4.791-2.949c1.847-0.687,3.866-1.029,6.057-1.029c2.19,0,4.209,0.343,6.058,1.029
				c1.847,0.686,3.444,1.669,4.79,2.949c1.346,1.28,2.396,2.83,3.147,4.651c0.752,1.821,1.128,3.854,1.128,6.097
				c0,2.244-0.376,4.276-1.128,6.098c-0.752,1.82-1.801,3.372-3.147,4.652c-1.346,1.279-2.943,2.263-4.79,2.949
				c-1.848,0.686-3.867,1.029-6.058,1.029c-2.191,0-4.21-0.344-6.057-1.029c-1.848-0.687-3.445-1.67-4.791-2.949
				c-1.346-1.28-2.396-2.832-3.147-4.652C227.236,45.051,226.86,43.019,226.86,40.774z M233.274,40.774
				c0,1.32,0.204,2.528,0.614,3.623c0.409,1.096,0.996,2.046,1.762,2.851c0.765,0.806,1.683,1.433,2.751,1.88
				c1.069,0.449,2.263,0.674,3.583,0.674c1.319,0,2.514-0.225,3.583-0.674c1.069-0.447,1.986-1.074,2.751-1.88
				c0.765-0.805,1.353-1.755,1.762-2.851c0.409-1.095,0.614-2.303,0.614-3.623c0-1.293-0.205-2.494-0.614-3.602
				c-0.409-1.109-0.997-2.065-1.762-2.871c-0.766-0.805-1.683-1.432-2.751-1.881c-1.069-0.448-2.264-0.673-3.583-0.673
				c-1.32,0-2.514,0.225-3.583,0.673c-1.069,0.449-1.986,1.076-2.751,1.881c-0.766,0.806-1.353,1.762-1.762,2.871
				C233.478,38.28,233.274,39.481,233.274,40.774z"/>
			<path fill="#456C80" d="M284.457,43.981c0,1.663-0.251,3.194-0.752,4.593c-0.502,1.399-1.247,2.613-2.237,3.643
				c-0.989,1.029-2.224,1.835-3.702,2.415c-1.478,0.58-3.181,0.871-5.106,0.871c-1.954,0-3.669-0.291-5.147-0.871
				s-2.712-1.386-3.701-2.415c-0.99-1.029-1.736-2.243-2.237-3.643c-0.501-1.398-0.752-2.93-0.752-4.593V26.76h6.176v16.984
				c0,0.871,0.139,1.677,0.416,2.415c0.277,0.739,0.666,1.379,1.168,1.92c0.501,0.541,1.102,0.964,1.802,1.268
				c0.698,0.303,1.458,0.455,2.276,0.455c0.817,0,1.569-0.152,2.257-0.455c0.686-0.304,1.279-0.727,1.781-1.268
				c0.501-0.541,0.891-1.181,1.168-1.92c0.277-0.738,0.415-1.544,0.415-2.415V26.76h6.177V43.981z"/>
			<path fill="#456C80" d="M289.792,26.76h8.394l11.916,19.479h0.08V26.76h6.176v28.03h-8.076l-12.234-19.953h-0.079V54.79h-6.176
				V26.76z"/>
			<path fill="#456C80" d="M326.916,32.224h-7.996V26.76h22.17v5.464h-7.998V54.79h-6.176V32.224z"/>
			<path fill="#456C80" d="M149.374,62.487h6.176V72.94h11.996V62.487h6.176v28.031h-6.176V78.403H155.55v12.115h-6.176V62.487z"/>
			<path fill="#456C80" d="M179.102,62.487h6.176v28.031h-6.176V62.487z"/>
			<path fill="#456C80" d="M205.132,81.136c0,1.293-0.113,2.547-0.336,3.76c-0.225,1.215-0.653,2.291-1.287,3.228
				c-0.633,0.937-1.538,1.688-2.712,2.257c-1.174,0.566-2.712,0.851-4.612,0.851c-2.217,0-4.091-0.528-5.622-1.583
				c-1.531-1.056-2.521-2.705-2.969-4.949l5.661-1.386c0.079,0.687,0.389,1.267,0.931,1.742c0.541,0.476,1.154,0.712,1.841,0.712
				c0.712,0,1.267-0.178,1.663-0.533c0.396-0.357,0.686-0.799,0.871-1.327c0.185-0.527,0.297-1.102,0.336-1.722
				c0.04-0.62,0.06-1.194,0.06-1.723V62.487h6.176V81.136z"/>
			<path fill="#456C80" d="M218.344,62.487h5.107l12.194,28.031h-6.968l-2.415-5.939h-10.887l-2.336,5.939h-6.81L218.344,62.487z
				 M220.719,70.644l-3.405,8.71h6.849L220.719,70.644z"/>
			<path fill="#456C80" d="M254.997,69.772c-0.607-0.738-1.353-1.307-2.237-1.702c-0.885-0.396-1.907-0.595-3.068-0.595
				c-1.162,0-2.237,0.225-3.227,0.674s-1.848,1.076-2.574,1.881c-0.726,0.805-1.293,1.762-1.702,2.87
				c-0.41,1.108-0.614,2.31-0.614,3.603c0,1.32,0.204,2.527,0.614,3.623c0.409,1.096,0.97,2.045,1.683,2.85
				c0.712,0.806,1.55,1.433,2.514,1.881c0.963,0.449,2,0.674,3.108,0.674c1.267,0,2.389-0.264,3.365-0.793
				c0.977-0.527,1.782-1.267,2.415-2.217l5.147,3.84c-1.188,1.664-2.692,2.891-4.513,3.683c-1.821,0.792-3.696,1.188-5.622,1.188
				c-2.191,0-4.21-0.343-6.057-1.029c-1.848-0.687-3.445-1.669-4.791-2.949c-1.346-1.28-2.396-2.831-3.147-4.651
				c-0.752-1.822-1.128-3.854-1.128-6.098c0-2.243,0.376-4.275,1.128-6.098c0.752-1.82,1.801-3.371,3.147-4.651
				c1.346-1.28,2.942-2.263,4.791-2.949c1.847-0.687,3.866-1.029,6.057-1.029c0.792,0,1.616,0.073,2.475,0.218
				c0.857,0.145,1.702,0.376,2.534,0.692c0.832,0.317,1.629,0.739,2.395,1.267c0.765,0.529,1.451,1.176,2.059,1.94L254.997,69.772z"
				/>
			<path fill="#456C80" d="M263.227,62.487h6.177v11.641l10.887-11.641h8.077l-12.472,13.025l13.54,15.006h-8.631l-11.401-13.303
				v13.303h-6.177V62.487z"/>
			<path fill="#456C80" d="M291.487,62.487h6.176v28.031h-6.176V62.487z"/>
			<path fill="#456C80" d="M303.043,62.487h8.393l11.916,19.479h0.08V62.487h6.176v28.031h-8.076l-12.234-19.954h-0.078v19.954
				h-6.176V62.487z"/>
			<path fill="#456C80" d="M360.354,88.538c-1.82,0.951-3.721,1.637-5.701,2.059c-1.979,0.422-3.998,0.634-6.057,0.634
				c-2.191,0-4.211-0.343-6.059-1.029s-3.443-1.669-4.789-2.949c-1.348-1.28-2.396-2.831-3.148-4.651
				c-0.752-1.822-1.129-3.854-1.129-6.098c0-2.243,0.377-4.275,1.129-6.098c0.752-1.82,1.801-3.371,3.148-4.651
				c1.346-1.28,2.941-2.263,4.789-2.949s3.867-1.029,6.059-1.029c2.242,0,4.309,0.271,6.195,0.812s3.543,1.472,4.969,2.791
				l-4.355,4.751c-0.844-0.871-1.795-1.53-2.85-1.979c-1.057-0.449-2.375-0.674-3.959-0.674c-1.32,0-2.514,0.225-3.584,0.674
				c-1.068,0.449-1.986,1.076-2.752,1.881s-1.352,1.762-1.762,2.87c-0.408,1.108-0.613,2.31-0.613,3.603
				c0,1.32,0.205,2.527,0.613,3.623c0.41,1.096,0.996,2.045,1.762,2.85c0.766,0.806,1.684,1.433,2.752,1.881
				c1.07,0.449,2.264,0.674,3.584,0.674c1.346,0,2.506-0.152,3.484-0.456c0.975-0.304,1.754-0.614,2.336-0.931v-4.553h-5.029V73.89
				h10.967V88.538z"/>
		</g>
	</g>
	<g>
		<g>
			<path fill="#010202" d="M153.616,112.318h-1.857V100.12h-3.777v-1.496h9.433v1.496h-3.799V112.318z"/>
			<path fill="#010202" d="M160.528,98.624h1.772v4.584h0.042c0.464-0.844,1.709-1.439,2.722-1.439c2.912,0,2.912,2.053,2.912,3.262
				v7.288h-1.772v-7.097c0-0.787-0.063-2.071-1.667-2.071c-0.95,0-2.237,0.575-2.237,2.071v7.097h-1.772V98.624z"/>
			<path fill="#010202" d="M173.204,107.37c0,1.572,0,3.951,2.174,3.951c1.688,0,1.92-1.611,1.92-2.379h1.772
				c0,1.094-0.717,3.645-3.798,3.645c-2.765,0-3.925-1.746-3.925-5.274c0-2.57,0.549-5.544,4.031-5.544
				c3.461,0,3.777,2.744,3.777,4.949v0.652H173.204z M177.298,106.104v-0.557c0-1.15-0.401-2.513-1.963-2.513
				c-1.857,0-2.068,2.071-2.068,2.685v0.385H177.298z"/>
			<path fill="#010202" d="M189.792,98.624h4.03c4.685,0,5.276,3.068,5.276,6.848c0,3.451-0.95,6.847-5.086,6.847h-4.22V98.624z
				 M191.649,110.938h1.941c3.208,0,3.566-2.992,3.566-5.447c0-2.647-0.19-5.485-3.566-5.485h-1.941V110.938z"/>
			<path fill="#010202" d="M202.889,98.624h1.772v1.841h-1.772V98.624z M202.889,102.038h1.772v10.28h-1.772V102.038z"/>
			<path fill="#010202" d="M215.933,111.666c0,3.069-1.562,4.182-3.841,4.182c-0.696,0-3.418,0-3.714-2.57h1.772
				c0.084,0.94,0.887,1.304,1.815,1.304c2.279,0,2.195-1.592,2.195-2.301v-1.343h-0.042c-0.379,0.862-1.435,1.381-2.553,1.381
				c-3.292,0-3.503-3.778-3.503-5.14c0-2.781,0.823-5.41,3.693-5.41c1.224,0,2.216,0.768,2.448,1.573h0.042v-1.304h1.688V111.666z
				 M209.919,107.179c0,1.668,0.274,3.759,2.047,3.759c1.92,0,2.3-1.649,2.3-3.759c0-1.996-0.38-4.028-2.279-4.028
				C210.341,103.15,209.919,104.724,209.919,107.179z"/>
			<path fill="#010202" d="M219.692,98.624h1.773v1.841h-1.773V98.624z M219.692,102.038h1.773v10.28h-1.773V102.038z"/>
			<path fill="#010202" d="M226,99.046h1.773v2.992h1.962v1.266h-1.962v6.598c0,0.825,0.232,1.15,1.161,1.15
				c0.38,0,0.591-0.037,0.781-0.057v1.323c-0.232,0.038-0.696,0.115-1.435,0.115c-1.836,0-2.279-0.69-2.279-2.033v-7.097h-1.646
				v-1.266H226V99.046z"/>
			<path fill="#010202" d="M232.479,105.146c0-2.341,1.098-3.377,3.799-3.377c3.439,0,3.439,1.881,3.439,2.955v5.734
				c0,0.422,0,0.824,0.549,0.824c0.232,0,0.337-0.038,0.422-0.096v1.15c-0.126,0.02-0.591,0.097-1.034,0.097
				c-0.675,0-1.52,0-1.604-1.323h-0.042c-0.569,0.92-1.667,1.477-2.722,1.477c-2.11,0-3.081-1.15-3.081-2.992
				c0-1.438,0.675-2.436,2.131-2.839l2.385-0.651c1.287-0.365,1.287-0.691,1.287-1.555c0-0.959-0.633-1.515-1.814-1.515
				c-1.941,0-1.941,1.649-1.941,2.014v0.097H232.479z M237.945,106.718c-0.654,0.633-2.216,0.768-3.018,1.209
				c-0.57,0.325-0.865,0.729-0.865,1.63c0,1.036,0.401,1.765,1.604,1.765c1.161,0,2.279-0.902,2.279-1.957V106.718z"/>
			<path fill="#010202" d="M243.713,98.624h1.772v13.694h-1.772V98.624z"/>
			<path fill="#010202" d="M256.418,98.624h7.787v1.496h-5.93v4.296h5.592v1.496h-5.592v6.406h-1.857V98.624z"/>
			<path fill="#010202" d="M267.464,98.624h1.772v1.841h-1.772V98.624z M267.464,102.038h1.772v10.28h-1.772V102.038z"/>
			<path fill="#010202" d="M272.986,102.038h1.772v1.534h0.042c0.507-0.979,1.182-1.804,2.448-1.804c0.358,0,0.611,0.039,0.78,0.115
				v1.573c-0.169-0.019-0.38-0.077-0.949-0.077c-0.887,0-2.321,0.729-2.321,2.437v6.502h-1.772V102.038z"/>
			<path fill="#010202" d="M285.881,105.049c0-1.304-0.38-2.014-1.667-2.014c-0.57,0-1.836,0.134-1.836,1.573
				c0,1.208,1.393,1.438,2.785,1.859c1.372,0.422,2.765,0.863,2.765,2.896c0,2.168-1.541,3.223-3.651,3.223
				c-3.841,0-3.883-2.59-3.883-3.645h1.772c0,1.247,0.38,2.379,2.11,2.379c0.57,0,1.879-0.25,1.879-1.707
				c0-1.381-1.394-1.669-2.765-2.091c-1.372-0.422-2.786-0.786-2.786-2.915c0-1.918,1.646-2.84,3.609-2.84
				c3.292,0,3.418,2.072,3.439,3.28H285.881z"/>
			<path fill="#010202" d="M291.865,99.046h1.772v2.992h1.963v1.266h-1.963v6.598c0,0.825,0.232,1.15,1.16,1.15
				c0.38,0,0.592-0.037,0.781-0.057v1.323c-0.232,0.038-0.696,0.115-1.435,0.115c-1.836,0-2.279-0.69-2.279-2.033v-7.097h-1.646
				v-1.266h1.646V99.046z"/>
			<path fill="#010202" d="M308.264,98.624h2.49l4.051,13.694h-1.941l-1.076-3.759h-4.812l-1.117,3.759h-1.941L308.264,98.624z
				 M307.355,107.179h4.051l-1.92-6.617h-0.041L307.355,107.179z"/>
			<path fill="#010202" d="M317.803,98.624h1.771v1.841h-1.771V98.624z M317.803,102.038h1.771v10.28h-1.771V102.038z"/>
			<path fill="#010202" d="M330.846,112.318h-1.688v-1.267h-0.043c-0.232,0.768-1.225,1.535-2.447,1.535
				c-2.68,0-3.693-2.168-3.693-5.408c0-2.148,0.379-5.41,3.566-5.41c1.014,0,2.09,0.557,2.49,1.439h0.041v-4.584h1.773V112.318z
				 M326.9,111.206c1.961,0,2.277-1.688,2.277-4.027c0-1.996-0.379-4.028-2.277-4.028c-1.646,0-2.068,1.573-2.068,4.028
				S325.254,111.206,326.9,111.206z"/>
			<path fill="#010202" d="M341.674,98.624h1.857v6.636h0.041l5.213-6.636h2.068l-4.559,5.715l4.938,7.979h-2.066l-4.074-6.599
				l-1.561,1.938v4.661h-1.857V98.624z"/>
			<path fill="#010202" d="M354.201,98.624h1.773v1.841h-1.773V98.624z M354.201,102.038h1.773v10.28h-1.773V102.038z"/>
			<path fill="#010202" d="M360.51,99.046h1.771v2.992h1.963v1.266h-1.963v6.598c0,0.825,0.232,1.15,1.16,1.15
				c0.381,0,0.592-0.037,0.781-0.057v1.323c-0.232,0.038-0.695,0.115-1.434,0.115c-1.836,0-2.279-0.69-2.279-2.033v-7.097h-1.646
				v-1.266h1.646V99.046z"/>
		</g>
	</g>
	<g>
		<g>
			<g>
				<g>
					<path fill="#DF2D38" d="M78.36,127.124c35.953-7.667,57.489-44.621,46.445-79.668L55.474,87.487L78.36,127.124"/>
				</g>
			</g>
			<path fill="#DF2D38" d="M96.54,12.237C70.764-2.646,38.788,2.976,19.479,24.046l69.528,40.139l22.832-39.539
				C107.539,19.843,102.423,15.63,96.54,12.237"/>
			<g>
				<g>
					<path fill="#DF2D38" d="M34.238,120.143c5.686,3.292,11.681,5.573,17.778,6.917V46.786H6.165
						C-2.855,74.217,8.237,105.138,34.238,120.143"/>
				</g>
			</g>
		</g>
		<circle fill="#FFFFFF" cx="65.66" cy="66.32" r="51.51"/>
		<circle fill="#456C80" cx="65.66" cy="66.32" r="48.312"/>
		<g opacity="0.2">
			<path fill="#FFFFFF" d="M56.336,87.757l56.274-32.492c-0.108-0.463-0.218-0.926-0.34-1.385L54.466,87.255l15.69,27.175
				c0.498-0.046,0.99-0.108,1.484-0.169L56.336,87.757z"/>
			<path fill="#FFFFFF" d="M104.791,38.116c-0.292-0.404-0.588-0.803-0.891-1.198l-15.214,26.35L32.708,30.953
				c-0.349,0.323-0.694,0.651-1.033,0.985l57.51,33.201L104.791,38.116z"/>
			<path fill="#FFFFFF" d="M21.71,46.12c-0.21,0.455-0.423,0.907-0.62,1.369h30.167v65c0.453,0.141,0.913,0.262,1.371,0.389V46.12
				H21.71z"/>
		</g>
	</g>
	<path fill="#FFFFFF" d="M82.253,60.882h-0.965H59.111c0-0.387,0-0.579,0-0.964V46.417c0-4.82,3.858-8.677,8.68-8.677
		c4.82,0,8.678,3.856,8.678,8.677v1.93v5.785c0,1.543,1.35,2.893,2.892,2.893c1.543,0,2.894-1.35,2.894-2.893v-5.785v-1.93
		c0-7.906-6.557-14.463-14.463-14.463c-7.908,0-14.464,6.557-14.464,14.463v14.465c-3.278,0-5.785,2.506-5.785,5.784v19.285
		c0,3.278,2.506,5.785,5.785,5.785h28.927c3.278,0,5.785-2.507,5.785-5.785V66.666C88.038,63.581,85.531,60.882,82.253,60.882z
		 M70.684,77.978v3.857c0,1.543-1.352,2.892-2.893,2.892c-1.543,0-2.894-1.349-2.894-2.892v-3.857
		c-1.156-0.965-1.928-2.314-1.928-3.857c0-2.699,2.122-4.82,4.822-4.82c2.7,0,4.82,2.121,4.82,4.82
		C72.611,75.663,71.84,77.013,70.684,77.978z"/>
</g>
</svg>
