<?xml version="1.0" encoding="utf-8"?>
<!-- Generator: Adobe Illustrator 16.0.0, SVG Export Plug-In . SVG Version: 6.00 Build 0)  -->
<!DOCTYPE svg PUBLIC "-//W3C//DTD SVG 1.1//EN" "http://www.w3.org/Graphics/SVG/1.1/DTD/svg11.dtd">
<svg version="1.1" id="Calque_1" xmlns="http://www.w3.org/2000/svg" xmlns:xlink="http://www.w3.org/1999/xlink" x="0px" y="0px"
	 width="506px" height="133px" viewBox="0 0 506 133" enable-background="new 0 0 506 133" xml:space="preserve">
<g>
	<g>
		<g>
			<path fill="#456C80" d="M174.751,63.52c-1.821,0.95-3.721,1.637-5.701,2.059c-1.98,0.422-3.999,0.634-6.058,0.634
				c-2.191,0-4.21-0.344-6.057-1.029c-1.848-0.687-3.445-1.669-4.791-2.95c-1.346-1.279-2.396-2.83-3.147-4.651
				c-0.752-1.821-1.128-3.854-1.128-6.097s0.376-4.276,1.128-6.098c0.752-1.821,1.801-3.371,3.147-4.651
				c1.346-1.28,2.942-2.264,4.791-2.95c1.847-0.686,3.866-1.029,6.057-1.029c2.243,0,4.309,0.271,6.196,0.812
				c1.887,0.542,3.543,1.472,4.969,2.792l-4.355,4.75c-0.845-0.87-1.795-1.53-2.851-1.979c-1.056-0.448-2.375-0.673-3.959-0.673
				c-1.32,0-2.514,0.225-3.583,0.673c-1.069,0.449-1.986,1.076-2.751,1.881c-0.766,0.806-1.353,1.762-1.762,2.87
				c-0.41,1.108-0.614,2.311-0.614,3.604c0,1.319,0.204,2.527,0.614,3.622c0.409,1.096,0.996,2.046,1.762,2.851
				c0.765,0.806,1.683,1.432,2.751,1.881s2.263,0.673,3.583,0.673c1.346,0,2.507-0.151,3.484-0.455
				c0.976-0.304,1.755-0.614,2.336-0.931v-4.553h-5.028v-5.701h10.966V63.52z"/>
			<path fill="#456C80" d="M179.997,37.469h6.176v22.329h11.442v5.701h-17.618V37.469z"/>
			<path fill="#456C80" d="M198.616,51.484c0-2.243,0.376-4.276,1.128-6.098c0.752-1.821,1.801-3.371,3.147-4.651
				c1.346-1.28,2.942-2.264,4.791-2.95c1.847-0.686,3.866-1.029,6.057-1.029c2.19,0,4.209,0.344,6.058,1.029
				c1.847,0.687,3.444,1.67,4.79,2.95c1.346,1.28,2.396,2.83,3.147,4.651c0.752,1.821,1.128,3.854,1.128,6.098
				s-0.376,4.275-1.128,6.097c-0.752,1.821-1.801,3.372-3.147,4.651c-1.346,1.281-2.943,2.264-4.79,2.95
				c-1.848,0.686-3.867,1.029-6.058,1.029c-2.191,0-4.21-0.344-6.057-1.029c-1.848-0.687-3.445-1.669-4.791-2.95
				c-1.346-1.279-2.396-2.83-3.147-4.651C198.992,55.76,198.616,53.728,198.616,51.484z M205.03,51.484
				c0,1.319,0.204,2.527,0.614,3.622c0.409,1.096,0.996,2.046,1.762,2.851c0.765,0.806,1.683,1.432,2.751,1.881
				s2.263,0.673,3.583,0.673c1.319,0,2.514-0.224,3.583-0.673s1.986-1.075,2.751-1.881c0.765-0.805,1.353-1.755,1.762-2.851
				c0.409-1.095,0.614-2.303,0.614-3.622c0-1.293-0.205-2.495-0.614-3.604s-0.997-2.064-1.762-2.87
				c-0.766-0.805-1.683-1.432-2.751-1.881c-1.069-0.448-2.264-0.673-3.583-0.673c-1.32,0-2.514,0.225-3.583,0.673
				c-1.069,0.449-1.986,1.076-2.751,1.881c-0.766,0.806-1.353,1.762-1.762,2.87C205.234,48.989,205.03,50.191,205.03,51.484z"/>
			<path fill="#456C80" d="M246.204,44.318c-0.502-0.634-1.182-1.103-2.039-1.406c-0.858-0.303-1.67-0.455-2.435-0.455
				c-0.449,0-0.911,0.054-1.386,0.158c-0.475,0.106-0.924,0.271-1.346,0.495c-0.423,0.225-0.766,0.521-1.029,0.891
				c-0.264,0.37-0.396,0.818-0.396,1.347c0,0.845,0.316,1.491,0.95,1.939c0.633,0.449,1.431,0.832,2.395,1.148
				c0.963,0.316,2,0.634,3.108,0.95s2.144,0.766,3.108,1.346c0.963,0.581,1.762,1.36,2.395,2.336c0.634,0.977,0.95,2.283,0.95,3.92
				c0,1.558-0.291,2.916-0.871,4.077c-0.581,1.162-1.366,2.125-2.356,2.891s-2.138,1.333-3.444,1.702s-2.686,0.555-4.137,0.555
				c-1.821,0-3.511-0.277-5.067-0.832c-1.558-0.554-3.009-1.451-4.355-2.691l4.395-4.83c0.633,0.845,1.431,1.498,2.395,1.959
				c0.963,0.463,1.96,0.693,2.989,0.693c0.501,0,1.009-0.06,1.524-0.179c0.515-0.118,0.977-0.297,1.386-0.534s0.739-0.541,0.99-0.91
				c0.25-0.37,0.376-0.805,0.376-1.307c0-0.845-0.324-1.511-0.97-1.999c-0.647-0.488-1.458-0.904-2.435-1.248
				c-0.977-0.342-2.033-0.686-3.167-1.029c-1.135-0.343-2.191-0.805-3.167-1.386c-0.977-0.58-1.788-1.346-2.435-2.296
				c-0.647-0.95-0.97-2.203-0.97-3.761c0-1.505,0.297-2.824,0.891-3.959s1.386-2.085,2.375-2.851s2.131-1.34,3.424-1.723
				c1.293-0.382,2.626-0.574,3.999-0.574c1.583,0,3.114,0.225,4.592,0.673c1.478,0.449,2.811,1.202,3.999,2.257L246.204,44.318z"/>
			<path fill="#456C80" d="M267.989,44.318c-0.5-0.634-1.182-1.103-2.039-1.406c-0.857-0.303-1.668-0.455-2.434-0.455
				c-0.449,0-0.91,0.054-1.387,0.158c-0.475,0.106-0.923,0.271-1.345,0.495c-0.423,0.225-0.766,0.521-1.029,0.891
				c-0.264,0.37-0.396,0.818-0.396,1.347c0,0.845,0.316,1.491,0.95,1.939c0.633,0.449,1.432,0.832,2.395,1.148s2,0.634,3.109,0.95
				c1.107,0.316,2.143,0.766,3.107,1.346c0.963,0.581,1.762,1.36,2.395,2.336c0.633,0.977,0.951,2.283,0.951,3.92
				c0,1.558-0.291,2.916-0.871,4.077c-0.582,1.162-1.367,2.125-2.355,2.891c-0.99,0.766-2.139,1.333-3.445,1.702
				s-2.686,0.555-4.137,0.555c-1.822,0-3.511-0.277-5.068-0.832c-1.558-0.554-3.009-1.451-4.355-2.691l4.395-4.83
				c0.633,0.845,1.431,1.498,2.395,1.959c0.963,0.463,1.96,0.693,2.989,0.693c0.502,0,1.01-0.06,1.525-0.179
				c0.514-0.118,0.975-0.297,1.385-0.534c0.408-0.237,0.738-0.541,0.99-0.91c0.25-0.37,0.375-0.805,0.375-1.307
				c0-0.845-0.322-1.511-0.969-1.999c-0.648-0.488-1.459-0.904-2.436-1.248c-0.977-0.342-2.032-0.686-3.167-1.029
				c-1.135-0.343-2.191-0.805-3.167-1.386c-0.977-0.58-1.788-1.346-2.435-2.296c-0.647-0.95-0.97-2.203-0.97-3.761
				c0-1.505,0.297-2.824,0.891-3.959s1.386-2.085,2.375-2.851s2.131-1.34,3.424-1.723c1.293-0.382,2.626-0.574,4-0.574
				c1.582,0,3.113,0.225,4.592,0.673c1.479,0.449,2.811,1.202,3.998,2.257L267.989,44.318z"/>
			<path fill="#456C80" d="M284.998,37.469h5.107l12.194,28.03h-6.968l-2.415-5.938h-10.888l-2.336,5.938h-6.81L284.998,37.469z
				 M287.373,45.624l-3.404,8.71h6.849L287.373,45.624z"/>
			<path fill="#456C80" d="M304.729,37.469h10.848c1.426,0,2.777,0.139,4.059,0.416c1.279,0.277,2.402,0.739,3.365,1.386
				s1.729,1.518,2.297,2.612c0.566,1.096,0.852,2.462,0.852,4.098c0,1.979-0.516,3.662-1.545,5.048s-2.533,2.264-4.514,2.633
				l7.127,11.838h-7.404l-5.859-11.204h-3.049v11.204h-6.176V37.469z M310.904,49.069h3.643c0.555,0,1.143-0.021,1.762-0.06
				c0.621-0.04,1.182-0.158,1.684-0.356c0.5-0.198,0.916-0.508,1.246-0.931c0.33-0.422,0.496-1.016,0.496-1.781
				c0-0.713-0.146-1.28-0.436-1.702c-0.291-0.422-0.66-0.746-1.109-0.971c-0.449-0.224-0.963-0.376-1.543-0.455
				c-0.582-0.079-1.148-0.119-1.703-0.119h-4.039V49.069z"/>
			<path fill="#456C80" d="M336.395,53.543l-10.531-16.074h7.68l5.939,10.491l6.295-10.491h7.324L342.57,53.543v11.956h-6.176
				V53.543z"/>
		</g>
	</g>
	<g>
		<g>
			<path fill="#010202" d="M153.616,91.051h-1.857V78.853h-3.777v-1.496h9.433v1.496h-3.799V91.051z"/>
			<path fill="#010202" d="M160.528,77.356h1.772v4.584h0.042c0.464-0.844,1.709-1.438,2.722-1.438c2.912,0,2.912,2.052,2.912,3.261
				v7.288h-1.772v-7.097c0-0.786-0.063-2.071-1.667-2.071c-0.95,0-2.237,0.575-2.237,2.071v7.097h-1.772V77.356z"/>
			<path fill="#010202" d="M173.204,86.103c0,1.572,0,3.951,2.174,3.951c1.688,0,1.92-1.611,1.92-2.379h1.772
				c0,1.094-0.717,3.645-3.798,3.645c-2.765,0-3.925-1.745-3.925-5.274c0-2.57,0.549-5.543,4.031-5.543
				c3.461,0,3.777,2.742,3.777,4.948v0.652H173.204z M177.298,84.836V84.28c0-1.151-0.401-2.513-1.963-2.513
				c-1.857,0-2.068,2.071-2.068,2.686v0.383H177.298z"/>
			<path fill="#010202" d="M189.792,77.356h4.03c4.685,0,5.276,3.068,5.276,6.847c0,3.453-0.95,6.848-5.086,6.848h-4.22V77.356z
				 M191.649,89.67h1.941c3.208,0,3.566-2.992,3.566-5.447c0-2.646-0.19-5.485-3.566-5.485h-1.941V89.67z"/>
			<path fill="#010202" d="M202.889,77.356h1.772v1.841h-1.772V77.356z M202.889,80.771h1.772v10.28h-1.772V80.771z"/>
			<path fill="#010202" d="M215.933,90.398c0,3.069-1.562,4.182-3.841,4.182c-0.696,0-3.418,0-3.714-2.57h1.772
				c0.084,0.939,0.887,1.305,1.815,1.305c2.279,0,2.195-1.593,2.195-2.302V89.67h-0.042c-0.379,0.863-1.435,1.381-2.553,1.381
				c-3.292,0-3.503-3.778-3.503-5.141c0-2.781,0.823-5.408,3.693-5.408c1.224,0,2.216,0.767,2.448,1.572h0.042v-1.304h1.688V90.398z
				 M209.919,85.91c0,1.669,0.274,3.76,2.047,3.76c1.92,0,2.3-1.649,2.3-3.76c0-1.994-0.38-4.027-2.279-4.027
				C210.341,81.883,209.919,83.455,209.919,85.91z"/>
			<path fill="#010202" d="M219.692,77.356h1.773v1.841h-1.773V77.356z M219.692,80.771h1.773v10.28h-1.773V80.771z"/>
			<path fill="#010202" d="M226,77.778h1.773v2.992h1.962v1.266h-1.962v6.598c0,0.825,0.232,1.151,1.161,1.151
				c0.38,0,0.591-0.039,0.781-0.058v1.323c-0.232,0.038-0.696,0.115-1.435,0.115c-1.836,0-2.279-0.69-2.279-2.033v-7.097h-1.646
				v-1.266H226V77.778z"/>
			<path fill="#010202" d="M232.479,83.877c0-2.34,1.098-3.375,3.799-3.375c3.439,0,3.439,1.879,3.439,2.953v5.735
				c0,0.422,0,0.824,0.549,0.824c0.232,0,0.337-0.038,0.422-0.096v1.151c-0.126,0.019-0.591,0.096-1.034,0.096
				c-0.675,0-1.52,0-1.604-1.323h-0.042c-0.569,0.92-1.667,1.477-2.722,1.477c-2.11,0-3.081-1.15-3.081-2.992
				c0-1.438,0.675-2.436,2.131-2.839l2.385-0.652c1.287-0.364,1.287-0.69,1.287-1.553c0-0.959-0.633-1.516-1.814-1.516
				c-1.941,0-1.941,1.649-1.941,2.014v0.096H232.479z M237.945,85.45c-0.654,0.633-2.216,0.768-3.018,1.208
				c-0.57,0.326-0.865,0.729-0.865,1.631c0,1.035,0.401,1.765,1.604,1.765c1.161,0,2.279-0.901,2.279-1.957V85.45z"/>
			<path fill="#010202" d="M243.713,77.356h1.772v13.694h-1.772V77.356z"/>
			<path fill="#010202" d="M256.418,77.356h7.787v1.496h-5.93v4.296h5.592v1.496h-5.592v6.406h-1.857V77.356z"/>
			<path fill="#010202" d="M267.464,77.356h1.772v1.841h-1.772V77.356z M267.464,80.771h1.772v10.28h-1.772V80.771z"/>
			<path fill="#010202" d="M272.986,80.771h1.772v1.534h0.042c0.507-0.979,1.182-1.803,2.448-1.803c0.358,0,0.611,0.038,0.78,0.115
				v1.572c-0.169-0.02-0.38-0.077-0.949-0.077c-0.887,0-2.321,0.729-2.321,2.437v6.502h-1.772V80.771z"/>
			<path fill="#010202" d="M285.881,83.781c0-1.304-0.38-2.014-1.667-2.014c-0.57,0-1.836,0.134-1.836,1.572
				c0,1.209,1.393,1.439,2.785,1.861c1.372,0.422,2.765,0.862,2.765,2.896c0,2.168-1.541,3.223-3.651,3.223
				c-3.841,0-3.883-2.59-3.883-3.645h1.772c0,1.247,0.38,2.379,2.11,2.379c0.57,0,1.879-0.25,1.879-1.707
				c0-1.381-1.394-1.669-2.765-2.091c-1.372-0.422-2.786-0.786-2.786-2.916c0-1.918,1.646-2.838,3.609-2.838
				c3.292,0,3.418,2.071,3.439,3.279H285.881z"/>
			<path fill="#010202" d="M291.865,77.778h1.772v2.992h1.963v1.266h-1.963v6.598c0,0.825,0.232,1.151,1.16,1.151
				c0.38,0,0.592-0.039,0.781-0.058v1.323c-0.232,0.038-0.696,0.115-1.435,0.115c-1.836,0-2.279-0.69-2.279-2.033v-7.097h-1.646
				v-1.266h1.646V77.778z"/>
			<path fill="#010202" d="M308.264,77.356h2.49l4.051,13.694h-1.941l-1.076-3.76h-4.812l-1.117,3.76h-1.941L308.264,77.356z
				 M307.355,85.91h4.051l-1.92-6.617h-0.041L307.355,85.91z"/>
			<path fill="#010202" d="M317.803,77.356h1.771v1.841h-1.771V77.356z M317.803,80.771h1.771v10.28h-1.771V80.771z"/>
			<path fill="#010202" d="M330.846,91.051h-1.688v-1.266h-0.043c-0.232,0.767-1.225,1.534-2.447,1.534
				c-2.68,0-3.693-2.167-3.693-5.409c0-2.147,0.379-5.408,3.566-5.408c1.014,0,2.09,0.556,2.49,1.438h0.041v-4.584h1.773V91.051z
				 M326.9,89.938c1.961,0,2.277-1.688,2.277-4.028c0-1.994-0.379-4.027-2.277-4.027c-1.646,0-2.068,1.572-2.068,4.027
				S325.254,89.938,326.9,89.938z"/>
			<path fill="#010202" d="M341.674,77.356h1.857v6.636h0.041l5.213-6.636h2.068l-4.559,5.716l4.938,7.979h-2.066l-4.074-6.598
				l-1.561,1.937v4.661h-1.857V77.356z"/>
			<path fill="#010202" d="M354.201,77.356h1.773v1.841h-1.773V77.356z M354.201,80.771h1.773v10.28h-1.773V80.771z"/>
			<path fill="#010202" d="M360.51,77.778h1.771v2.992h1.963v1.266h-1.963v6.598c0,0.825,0.232,1.151,1.16,1.151
				c0.381,0,0.592-0.039,0.781-0.058v1.323c-0.232,0.038-0.695,0.115-1.434,0.115c-1.836,0-2.279-0.69-2.279-2.033v-7.097h-1.646
				v-1.266h1.646V77.778z"/>
		</g>
	</g>
	<g>
		<g>
			<g>
				<g>
					<path fill="#DF2D38" d="M78.36,127.125c35.953-7.666,57.489-44.621,46.445-79.669L55.474,87.487L78.36,127.125"/>
				</g>
			</g>
			<path fill="#DF2D38" d="M96.54,12.238C70.764-2.646,38.788,2.976,19.479,24.046l69.528,40.14l22.832-39.541
				C107.539,19.843,102.423,15.631,96.54,12.238"/>
			<g>
				<g>
					<path fill="#DF2D38" d="M34.238,120.144c5.686,3.292,11.681,5.573,17.778,6.917V46.785H6.165
						C-2.855,74.218,8.237,105.136,34.238,120.144"/>
				</g>
			</g>
		</g>
		<circle fill="#FFFFFF" cx="65.66" cy="66.32" r="51.51"/>
		<circle fill="#456C80" cx="65.66" cy="66.32" r="48.312"/>
		<g opacity="0.2">
			<path fill="#FFFFFF" d="M56.336,87.757l56.274-32.491c-0.108-0.463-0.218-0.927-0.34-1.386L54.466,87.256l15.69,27.174
				c0.498-0.046,0.99-0.107,1.484-0.169L56.336,87.757z"/>
			<path fill="#FFFFFF" d="M104.791,38.116c-0.292-0.404-0.588-0.804-0.891-1.198L88.685,63.269L32.708,30.953
				c-0.349,0.324-0.694,0.65-1.033,0.985l57.51,33.201L104.791,38.116z"/>
			<path fill="#FFFFFF" d="M21.71,46.119c-0.21,0.455-0.423,0.909-0.62,1.371h30.167v64.999c0.453,0.142,0.913,0.262,1.371,0.39
				v-66.76H21.71z"/>
		</g>
	</g>
	<g>
		<path fill="#FFFFFF" d="M93.145,57.939c-0.26-1.949-0.297-5.306,1.512-6.434c0.034-0.019,0.056-0.051,0.087-0.075
			c1.48-0.474,2.501-1.138,1.7-2.032L74.61,42.82l-35.351,4.915c0,0-4.048,0.578-3.688,6.867c0.196,3.424,1.27,5.105,2.209,5.932
			l-2.901,0.874c-0.805,0.896,0.22,1.56,1.7,2.032c0.029,0.027,0.053,0.055,0.085,0.076c1.809,1.131,1.774,4.485,1.514,6.434
			c-6.499,1.846-4.166,2.448-4.166,2.448l1.425,0.345c-1.002,0.904-1.998,2.625-1.812,5.884c0.362,6.287,3.687,6.723,3.687,6.723
			l23.135,7.519l34.917-8.458c0,0,2.335-0.602-4.166-2.447c-0.261-1.947-0.299-5.302,1.515-6.435
			c0.033-0.02,0.059-0.049,0.085-0.075c1.48-0.473,2.504-1.137,1.697-2.031l-1.517-0.457c1.012-0.612,2.533-2.206,2.771-6.35
			c0.166-2.849-0.578-4.52-1.439-5.503l3-0.726C97.31,60.388,99.644,59.784,93.145,57.939z M63.936,57.86l5.873-1.208l19.844-4.078
			l2.956-0.608c-0.944,1.729-0.905,4.096-0.748,5.617c0.035,0.343,0.075,0.657,0.112,0.896l-3.236,0.805l-25.046,6.23L63.936,57.86z
			 M38.713,63.979l2.956,0.609l19.058,3.915l1.665,0.342l0,0l0,0l4.992,1.027l0.247,7.654l-25.741-6.405l-2.538-0.628
			c0.038-0.24,0.076-0.553,0.113-0.899C39.618,68.075,39.659,65.708,38.713,63.979z M37.565,54.302
			c-0.035-1.673,0.263-2.884,0.865-3.5c0.383-0.391,0.835-0.473,1.146-0.473c0.164,0,0.283,0.022,0.29,0.022L55.1,55.317
			l7.599,2.478l-0.25,7.708l-21.32-5.976l-1.125-0.317c-0.042-0.009-0.097-0.019-0.141-0.021
			C39.775,59.184,37.667,58.989,37.565,54.302z M60.501,89.527l-22.445-6.291c-0.04-0.013-0.097-0.021-0.139-0.021
			c-0.089-0.007-2.198-0.2-2.301-4.89c-0.036-1.674,0.264-2.883,0.865-3.498c0.384-0.393,0.836-0.475,1.147-0.475
			c0.163,0,0.281,0.021,0.291,0.021l0,0l22.83,7.445L60.501,89.527z M89.911,81.605c0.036,0.344,0.075,0.658,0.112,0.896
			l-28.281,7.037l0.246-7.656l6.048-1.242l0.893,0.217l3.346-1.089L87.703,76.6l2.959-0.609
			C89.714,77.72,89.755,80.086,89.911,81.605z M91.469,71.202c-0.051,0-0.102,0.007-0.152,0.022l-2.132,0.597l-20.311,5.694
			l-0.249-7.707l6.665-2.174l16.135-5.262c0.001-0.001,0.848-0.188,1.471,0.441c0.603,0.616,0.899,1.824,0.865,3.497
			C93.656,71.001,91.547,71.195,91.469,71.202z"/>
	</g>
</g>
</svg>
