<?xml version="1.0" encoding="utf-8"?>
<!-- Generator: Adobe Illustrator 16.0.0, SVG Export Plug-In . SVG Version: 6.00 Build 0)  -->
<!DOCTYPE svg PUBLIC "-//W3C//DTD SVG 1.1//EN" "http://www.w3.org/Graphics/SVG/1.1/DTD/svg11.dtd">
<svg version="1.1" id="Calque_1" xmlns="http://www.w3.org/2000/svg" xmlns:xlink="http://www.w3.org/1999/xlink" x="0px" y="0px"
	 width="506px" height="133px" viewBox="0 0 506 133" enable-background="new 0 0 506 133" xml:space="preserve">
<g>
	<g>
		<g>
			<path fill="#456C80" d="M149.374,26.76h9.264c2.243,0,4.375,0.251,6.394,0.753c2.019,0.501,3.781,1.312,5.285,2.434
				c1.504,1.123,2.698,2.58,3.583,4.375c0.884,1.795,1.326,3.973,1.326,6.533c0,2.27-0.429,4.27-1.287,5.998
				c-0.858,1.729-2.013,3.181-3.464,4.354c-1.452,1.175-3.127,2.065-5.028,2.673s-3.894,0.91-5.978,0.91h-10.096V26.76z
				 M155.55,49.089h3.207c1.425,0,2.751-0.145,3.979-0.436c1.228-0.29,2.29-0.771,3.187-1.445c0.897-0.673,1.604-1.557,2.118-2.652
				c0.515-1.095,0.772-2.435,0.772-4.018c0-1.373-0.257-2.567-0.772-3.584c-0.515-1.016-1.208-1.854-2.079-2.514
				s-1.894-1.154-3.068-1.484c-1.175-0.33-2.409-0.495-3.702-0.495h-3.642V49.089z"/>
			<path fill="#456C80" d="M181.663,26.76h9.264c2.243,0,4.375,0.251,6.394,0.753c2.019,0.501,3.781,1.312,5.285,2.434
				c1.504,1.123,2.698,2.58,3.583,4.375c0.884,1.795,1.326,3.973,1.326,6.533c0,2.27-0.429,4.27-1.287,5.998
				c-0.858,1.729-2.013,3.181-3.464,4.354c-1.452,1.175-3.127,2.065-5.028,2.673s-3.894,0.91-5.978,0.91h-10.096V26.76z
				 M187.839,49.089h3.207c1.425,0,2.751-0.145,3.979-0.436c1.228-0.29,2.29-0.771,3.187-1.445c0.897-0.673,1.604-1.557,2.118-2.652
				c0.515-1.095,0.772-2.435,0.772-4.018c0-1.373-0.257-2.567-0.772-3.584c-0.515-1.016-1.208-1.854-2.079-2.514
				s-1.894-1.154-3.068-1.484c-1.175-0.33-2.409-0.495-3.702-0.495h-3.642V49.089z"/>
			<path fill="#456C80" d="M212.44,40.774c0-2.242,0.376-4.275,1.128-6.097c0.752-1.821,1.801-3.371,3.147-4.651
				c1.346-1.28,2.942-2.264,4.791-2.949c1.847-0.687,3.866-1.029,6.057-1.029c2.19,0,4.209,0.343,6.058,1.029
				c1.847,0.686,3.444,1.669,4.79,2.949c1.346,1.28,2.396,2.83,3.147,4.651c0.752,1.821,1.128,3.854,1.128,6.097
				c0,2.244-0.376,4.276-1.128,6.098c-0.752,1.82-1.801,3.372-3.147,4.652c-1.346,1.279-2.943,2.263-4.79,2.949
				c-1.848,0.686-3.867,1.029-6.058,1.029c-2.191,0-4.21-0.344-6.057-1.029c-1.848-0.687-3.445-1.67-4.791-2.949
				c-1.346-1.28-2.396-2.832-3.147-4.652C212.816,45.051,212.44,43.019,212.44,40.774z M218.854,40.774
				c0,1.32,0.204,2.528,0.614,3.623c0.409,1.096,0.996,2.046,1.762,2.851c0.765,0.806,1.683,1.433,2.751,1.88
				c1.069,0.449,2.263,0.674,3.583,0.674c1.319,0,2.514-0.225,3.583-0.674c1.069-0.447,1.986-1.074,2.751-1.88
				c0.765-0.805,1.353-1.755,1.762-2.851c0.409-1.095,0.614-2.303,0.614-3.623c0-1.293-0.205-2.494-0.614-3.602
				c-0.409-1.109-0.997-2.065-1.762-2.871c-0.766-0.805-1.683-1.432-2.751-1.881c-1.069-0.448-2.264-0.673-3.583-0.673
				c-1.32,0-2.514,0.225-3.583,0.673c-1.069,0.449-1.986,1.076-2.751,1.881c-0.766,0.806-1.353,1.762-1.762,2.871
				C219.058,38.28,218.854,39.481,218.854,40.774z"/>
			<path fill="#456C80" d="M262.601,33.608c-0.501-0.633-1.181-1.102-2.039-1.404c-0.858-0.304-1.67-0.456-2.435-0.456
				c-0.449,0-0.911,0.054-1.386,0.159s-0.924,0.271-1.346,0.494c-0.423,0.225-0.766,0.521-1.029,0.891
				c-0.264,0.37-0.396,0.818-0.396,1.346c0,0.846,0.316,1.492,0.95,1.94c0.633,0.449,1.431,0.831,2.395,1.148
				c0.963,0.316,2,0.634,3.108,0.95c1.108,0.316,2.144,0.766,3.108,1.346c0.963,0.581,1.762,1.359,2.396,2.336
				c0.633,0.977,0.95,2.283,0.95,3.92c0,1.557-0.291,2.916-0.871,4.078c-0.581,1.161-1.366,2.125-2.355,2.89
				c-0.99,0.766-2.139,1.333-3.445,1.702c-1.307,0.369-2.686,0.555-4.137,0.555c-1.821,0-3.511-0.277-5.067-0.832
				c-1.558-0.554-3.009-1.451-4.355-2.691l4.395-4.83c0.633,0.845,1.431,1.498,2.395,1.959c0.963,0.463,1.96,0.693,2.989,0.693
				c0.501,0,1.009-0.06,1.524-0.178c0.515-0.119,0.977-0.297,1.386-0.535c0.409-0.237,0.739-0.541,0.99-0.91
				c0.25-0.369,0.376-0.805,0.376-1.307c0-0.845-0.324-1.511-0.97-2c-0.647-0.488-1.458-0.903-2.435-1.246
				c-0.977-0.344-2.033-0.687-3.167-1.029c-1.135-0.344-2.191-0.805-3.167-1.387c-0.977-0.58-1.788-1.346-2.435-2.296
				c-0.647-0.95-0.97-2.204-0.97-3.761c0-1.505,0.297-2.824,0.891-3.959s1.386-2.085,2.375-2.852
				c0.99-0.765,2.131-1.338,3.424-1.722c1.293-0.382,2.626-0.573,3.999-0.573c1.583,0,3.114,0.224,4.593,0.672
				c1.478,0.449,2.811,1.201,3.998,2.258L262.601,33.608z"/>
			<path fill="#456C80" d="M149.374,62.487h9.343l6.454,18.291h0.079l6.493-18.291h9.304v28.031h-6.176V69.021h-0.08l-7.364,21.498
				h-4.711l-7.086-21.498h-0.079v21.498h-6.176V62.487z"/>
			<path fill="#456C80" d="M186.426,62.487h6.176v28.031h-6.176V62.487z"/>
			<path fill="#456C80" d="M203.141,67.951h-7.997v-5.464h22.17v5.464h-7.997v22.567h-6.176V67.951z"/>
			<path fill="#456C80" d="M219.855,62.487h6.176v28.031h-6.176V62.487z"/>
			<path fill="#456C80" d="M256.821,88.538c-1.821,0.951-3.721,1.637-5.701,2.059c-1.98,0.422-3.999,0.634-6.058,0.634
				c-2.191,0-4.21-0.343-6.057-1.029c-1.848-0.687-3.445-1.669-4.791-2.949c-1.346-1.28-2.396-2.831-3.147-4.651
				c-0.752-1.822-1.128-3.854-1.128-6.098c0-2.243,0.376-4.275,1.128-6.098c0.752-1.82,1.801-3.371,3.147-4.651
				c1.346-1.28,2.942-2.263,4.791-2.949c1.847-0.687,3.866-1.029,6.057-1.029c2.243,0,4.309,0.271,6.196,0.812
				c1.887,0.541,3.543,1.472,4.969,2.791l-4.355,4.751c-0.845-0.871-1.795-1.53-2.851-1.979s-2.375-0.674-3.959-0.674
				c-1.32,0-2.514,0.225-3.583,0.674s-1.986,1.076-2.751,1.881c-0.766,0.805-1.353,1.762-1.762,2.87
				c-0.41,1.108-0.614,2.31-0.614,3.603c0,1.32,0.204,2.527,0.614,3.623c0.409,1.096,0.996,2.045,1.762,2.85
				c0.765,0.806,1.683,1.433,2.751,1.881c1.069,0.449,2.263,0.674,3.583,0.674c1.346,0,2.507-0.152,3.484-0.456
				c0.976-0.304,1.755-0.614,2.336-0.931v-4.553h-5.028V73.89h10.966V88.538z"/>
			<path fill="#456C80" d="M270.963,62.487h5.107l12.193,28.031h-6.969l-2.414-5.939h-10.889l-2.336,5.939h-6.809L270.963,62.487z
				 M273.338,70.644l-3.404,8.71h6.848L273.338,70.644z"/>
			<path fill="#456C80" d="M293.284,67.951h-7.997v-5.464h22.17v5.464h-7.998v22.567h-6.175V67.951z"/>
			<path fill="#456C80" d="M309.998,62.487h6.176v28.031h-6.176V62.487z"/>
			<path fill="#456C80" d="M320.082,76.503c0-2.243,0.377-4.275,1.129-6.098c0.752-1.82,1.801-3.371,3.146-4.651
				s2.943-2.263,4.791-2.949s3.865-1.029,6.057-1.029s4.211,0.343,6.059,1.029c1.846,0.687,3.443,1.669,4.789,2.949
				c1.348,1.28,2.396,2.831,3.148,4.651c0.752,1.822,1.129,3.854,1.129,6.098c0,2.244-0.377,4.275-1.129,6.098
				c-0.752,1.82-1.801,3.371-3.148,4.651c-1.346,1.28-2.943,2.263-4.789,2.949c-1.848,0.687-3.867,1.029-6.059,1.029
				s-4.209-0.343-6.057-1.029s-3.445-1.669-4.791-2.949s-2.395-2.831-3.146-4.651C320.459,80.778,320.082,78.747,320.082,76.503z
				 M326.496,76.503c0,1.32,0.203,2.527,0.613,3.623c0.408,1.096,0.996,2.045,1.762,2.85c0.766,0.806,1.682,1.433,2.752,1.881
				c1.068,0.449,2.262,0.674,3.582,0.674s2.514-0.225,3.584-0.674c1.068-0.448,1.984-1.075,2.752-1.881
				c0.764-0.805,1.352-1.754,1.762-2.85c0.408-1.096,0.613-2.303,0.613-3.623c0-1.293-0.205-2.494-0.613-3.603
				c-0.41-1.108-0.998-2.065-1.762-2.87c-0.768-0.805-1.684-1.432-2.752-1.881c-1.07-0.449-2.264-0.674-3.584-0.674
				s-2.514,0.225-3.582,0.674c-1.07,0.449-1.986,1.076-2.752,1.881s-1.354,1.762-1.762,2.87
				C326.699,74.009,326.496,75.21,326.496,76.503z"/>
			<path fill="#456C80" d="M354.217,62.487h8.393l11.916,19.479h0.08V62.487h6.176v28.031h-8.076l-12.234-19.954h-0.078v19.954
				h-6.176V62.487z"/>
		</g>
	</g>
	<g>
		<g>
			<path fill="#010202" d="M153.616,112.318h-1.857V100.12h-3.777v-1.496h9.433v1.496h-3.799V112.318z"/>
			<path fill="#010202" d="M160.528,98.624h1.772v4.584h0.042c0.464-0.844,1.709-1.439,2.722-1.439c2.912,0,2.912,2.053,2.912,3.262
				v7.288h-1.772v-7.097c0-0.787-0.063-2.071-1.667-2.071c-0.95,0-2.237,0.575-2.237,2.071v7.097h-1.772V98.624z"/>
			<path fill="#010202" d="M173.204,107.37c0,1.572,0,3.951,2.174,3.951c1.688,0,1.92-1.611,1.92-2.379h1.772
				c0,1.094-0.717,3.645-3.798,3.645c-2.765,0-3.925-1.746-3.925-5.274c0-2.57,0.549-5.544,4.031-5.544
				c3.461,0,3.777,2.744,3.777,4.949v0.652H173.204z M177.298,106.104v-0.557c0-1.15-0.401-2.513-1.963-2.513
				c-1.857,0-2.068,2.071-2.068,2.685v0.385H177.298z"/>
			<path fill="#010202" d="M189.792,98.624h4.03c4.685,0,5.276,3.068,5.276,6.848c0,3.451-0.95,6.847-5.086,6.847h-4.22V98.624z
				 M191.649,110.938h1.941c3.208,0,3.566-2.992,3.566-5.447c0-2.647-0.19-5.485-3.566-5.485h-1.941V110.938z"/>
			<path fill="#010202" d="M202.889,98.624h1.772v1.841h-1.772V98.624z M202.889,102.038h1.772v10.28h-1.772V102.038z"/>
			<path fill="#010202" d="M215.933,111.666c0,3.069-1.562,4.182-3.841,4.182c-0.696,0-3.418,0-3.714-2.57h1.772
				c0.084,0.94,0.887,1.304,1.815,1.304c2.279,0,2.195-1.592,2.195-2.301v-1.343h-0.042c-0.379,0.862-1.435,1.381-2.553,1.381
				c-3.292,0-3.503-3.778-3.503-5.14c0-2.781,0.823-5.41,3.693-5.41c1.224,0,2.216,0.768,2.448,1.573h0.042v-1.304h1.688V111.666z
				 M209.919,107.179c0,1.668,0.274,3.759,2.047,3.759c1.92,0,2.3-1.649,2.3-3.759c0-1.996-0.38-4.028-2.279-4.028
				C210.341,103.15,209.919,104.724,209.919,107.179z"/>
			<path fill="#010202" d="M219.692,98.624h1.773v1.841h-1.773V98.624z M219.692,102.038h1.773v10.28h-1.773V102.038z"/>
			<path fill="#010202" d="M226,99.046h1.773v2.992h1.962v1.266h-1.962v6.598c0,0.825,0.232,1.15,1.161,1.15
				c0.38,0,0.591-0.037,0.781-0.057v1.323c-0.232,0.038-0.696,0.115-1.435,0.115c-1.836,0-2.279-0.69-2.279-2.033v-7.097h-1.646
				v-1.266H226V99.046z"/>
			<path fill="#010202" d="M232.479,105.146c0-2.341,1.098-3.377,3.799-3.377c3.439,0,3.439,1.881,3.439,2.955v5.734
				c0,0.422,0,0.824,0.549,0.824c0.232,0,0.337-0.038,0.422-0.096v1.15c-0.126,0.02-0.591,0.097-1.034,0.097
				c-0.675,0-1.52,0-1.604-1.323h-0.042c-0.569,0.92-1.667,1.477-2.722,1.477c-2.11,0-3.081-1.15-3.081-2.992
				c0-1.438,0.675-2.436,2.131-2.839l2.385-0.651c1.287-0.365,1.287-0.691,1.287-1.555c0-0.959-0.633-1.515-1.814-1.515
				c-1.941,0-1.941,1.649-1.941,2.014v0.097H232.479z M237.945,106.718c-0.654,0.633-2.216,0.768-3.018,1.209
				c-0.57,0.325-0.865,0.729-0.865,1.63c0,1.036,0.401,1.765,1.604,1.765c1.161,0,2.279-0.902,2.279-1.957V106.718z"/>
			<path fill="#010202" d="M243.713,98.624h1.772v13.694h-1.772V98.624z"/>
			<path fill="#010202" d="M256.418,98.624h7.787v1.496h-5.93v4.296h5.592v1.496h-5.592v6.406h-1.857V98.624z"/>
			<path fill="#010202" d="M267.464,98.624h1.772v1.841h-1.772V98.624z M267.464,102.038h1.772v10.28h-1.772V102.038z"/>
			<path fill="#010202" d="M272.986,102.038h1.772v1.534h0.042c0.507-0.979,1.182-1.804,2.448-1.804c0.358,0,0.611,0.039,0.78,0.115
				v1.573c-0.169-0.019-0.38-0.077-0.949-0.077c-0.887,0-2.321,0.729-2.321,2.437v6.502h-1.772V102.038z"/>
			<path fill="#010202" d="M285.881,105.049c0-1.304-0.38-2.014-1.667-2.014c-0.57,0-1.836,0.134-1.836,1.573
				c0,1.208,1.393,1.438,2.785,1.859c1.372,0.422,2.765,0.863,2.765,2.896c0,2.168-1.541,3.223-3.651,3.223
				c-3.841,0-3.883-2.59-3.883-3.645h1.772c0,1.247,0.38,2.379,2.11,2.379c0.57,0,1.879-0.25,1.879-1.707
				c0-1.381-1.394-1.669-2.765-2.091c-1.372-0.422-2.786-0.786-2.786-2.915c0-1.918,1.646-2.84,3.609-2.84
				c3.292,0,3.418,2.072,3.439,3.28H285.881z"/>
			<path fill="#010202" d="M291.865,99.046h1.772v2.992h1.963v1.266h-1.963v6.598c0,0.825,0.232,1.15,1.16,1.15
				c0.38,0,0.592-0.037,0.781-0.057v1.323c-0.232,0.038-0.696,0.115-1.435,0.115c-1.836,0-2.279-0.69-2.279-2.033v-7.097h-1.646
				v-1.266h1.646V99.046z"/>
			<path fill="#010202" d="M308.264,98.624h2.49l4.051,13.694h-1.941l-1.076-3.759h-4.812l-1.117,3.759h-1.941L308.264,98.624z
				 M307.355,107.179h4.051l-1.92-6.617h-0.041L307.355,107.179z"/>
			<path fill="#010202" d="M317.803,98.624h1.771v1.841h-1.771V98.624z M317.803,102.038h1.771v10.28h-1.771V102.038z"/>
			<path fill="#010202" d="M330.846,112.318h-1.688v-1.267h-0.043c-0.232,0.768-1.225,1.535-2.447,1.535
				c-2.68,0-3.693-2.168-3.693-5.408c0-2.148,0.379-5.41,3.566-5.41c1.014,0,2.09,0.557,2.49,1.439h0.041v-4.584h1.773V112.318z
				 M326.9,111.206c1.961,0,2.277-1.688,2.277-4.027c0-1.996-0.379-4.028-2.277-4.028c-1.646,0-2.068,1.573-2.068,4.028
				S325.254,111.206,326.9,111.206z"/>
			<path fill="#010202" d="M341.674,98.624h1.857v6.636h0.041l5.213-6.636h2.068l-4.559,5.715l4.938,7.979h-2.066l-4.074-6.599
				l-1.561,1.938v4.661h-1.857V98.624z"/>
			<path fill="#010202" d="M354.201,98.624h1.773v1.841h-1.773V98.624z M354.201,102.038h1.773v10.28h-1.773V102.038z"/>
			<path fill="#010202" d="M360.51,99.046h1.771v2.992h1.963v1.266h-1.963v6.598c0,0.825,0.232,1.15,1.16,1.15
				c0.381,0,0.592-0.037,0.781-0.057v1.323c-0.232,0.038-0.695,0.115-1.434,0.115c-1.836,0-2.279-0.69-2.279-2.033v-7.097h-1.646
				v-1.266h1.646V99.046z"/>
		</g>
	</g>
	<g>
		<g>
			<g>
				<g>
					<path fill="#DF2D38" d="M78.36,127.123c35.953-7.666,57.489-44.62,46.445-79.667L55.474,87.487L78.36,127.123"/>
				</g>
			</g>
			<path fill="#DF2D38" d="M96.54,12.237C70.764-2.646,38.788,2.976,19.479,24.046l69.528,40.139l22.832-39.54
				C107.539,19.843,102.423,15.63,96.54,12.237"/>
			<g>
				<g>
					<path fill="#DF2D38" d="M34.238,120.142c5.686,3.293,11.681,5.573,17.778,6.917V46.786H6.165
						C-2.855,74.217,8.237,105.137,34.238,120.142"/>
				</g>
			</g>
		</g>
		<circle fill="#FFFFFF" cx="65.66" cy="66.32" r="51.51"/>
		<circle fill="#456C80" cx="65.66" cy="66.32" r="48.312"/>
		<g opacity="0.2">
			<path fill="#FFFFFF" d="M56.336,87.757l56.274-32.492c-0.108-0.463-0.218-0.926-0.34-1.385L54.466,87.255l15.69,27.175
				c0.498-0.047,0.99-0.108,1.484-0.169L56.336,87.757z"/>
			<path fill="#FFFFFF" d="M104.791,38.116c-0.292-0.404-0.588-0.803-0.891-1.198l-15.214,26.35L32.708,30.953
				c-0.349,0.323-0.694,0.651-1.033,0.985l57.51,33.201L104.791,38.116z"/>
			<path fill="#FFFFFF" d="M21.71,46.12c-0.21,0.455-0.423,0.907-0.62,1.369h30.167v65c0.453,0.141,0.913,0.262,1.371,0.389V46.12
				H21.71z"/>
		</g>
	</g>
	<path fill="#FFFFFF" d="M101.921,70.515c-2.054-1.559-4.99-1.17-6.562,0.893c-0.147,0.21-0.269,0.43-0.392,0.644L83.48,70.104
		c0.108-0.795,0.18-1.6,0.18-2.424c0-3.34-0.929-6.457-2.521-9.141l7.323-4.736c0.468,0.316,1.038,0.487,1.644,0.431
		c1.391-0.128,2.416-1.351,2.294-2.753c-0.125-1.395-1.36-2.415-2.752-2.291c-1.394,0.124-2.416,1.359-2.295,2.754
		c0.011,0.139,0.048,0.264,0.075,0.4l-7.276,4.697c-1.453-1.963-3.278-3.617-5.397-4.85l5.228-8.259
		c0.557,0.091,1.147,0.007,1.673-0.297c1.207-0.704,1.627-2.245,0.92-3.455c-0.7-1.214-2.248-1.635-3.457-0.93
		c-1.209,0.7-1.627,2.247-0.925,3.463c0.066,0.12,0.143,0.224,0.233,0.329l-5.265,8.313c-1.782-0.813-3.709-1.362-5.744-1.554
		l1.068-6.312c0.413-0.1,0.791-0.305,1.062-0.656c0.616-0.822,0.467-1.986-0.352-2.605c-0.819-0.627-1.987-0.467-2.61,0.35
		c-0.617,0.816-0.462,1.986,0.353,2.607c0.08,0.051,0.172,0.071,0.253,0.123l-1.092,6.434c-0.137-0.004-0.269-0.021-0.403-0.021
		c-2.332,0-4.554,0.456-6.588,1.268l-5.04-9.258c0.488-0.62,0.788-1.395,0.774-2.248c-0.031-1.97-1.643-3.54-3.611-3.5
		c-1.962,0.032-3.527,1.645-3.496,3.611c0.029,1.961,1.643,3.521,3.609,3.494c0.195-0.005,0.383-0.039,0.571-0.068l4.923,9.047
		c-2.462,1.391-4.562,3.355-6.122,5.705L43.361,52c0.148-0.539,0.119-1.134-0.123-1.688c-0.575-1.273-2.069-1.845-3.347-1.27
		c-1.281,0.572-1.849,2.072-1.277,3.35c0.582,1.271,2.079,1.84,3.354,1.268c0.123-0.059,0.238-0.135,0.35-0.207l7.476,5.879
		c-1.103,2.113-1.803,4.469-1.993,6.98l-11.036-0.021c-0.311-0.726-0.849-1.364-1.599-1.756c-1.739-0.919-3.895-0.255-4.802,1.485
		c-0.914,1.738-0.246,3.889,1.484,4.802c1.74,0.918,3.893,0.249,4.81-1.491c0.092-0.17,0.15-0.346,0.213-0.527l10.924,0.026
		c0.091,1.424,0.331,2.812,0.733,4.135l-7.06,2.716c-0.39-0.402-0.918-0.682-1.521-0.752c-1.389-0.158-2.64,0.836-2.8,2.222
		c-0.161,1.39,0.834,2.657,2.228,2.81c1.385,0.156,2.64-0.843,2.796-2.23c0.013-0.137,0.011-0.264,0.009-0.41l6.954-2.678
		c1.378,3.266,3.702,6.05,6.625,7.984l-3.409,3.521c-0.527-0.199-1.121-0.24-1.696-0.051c-1.336,0.445-2.05,1.877-1.616,3.197
		c0.436,1.33,1.872,2.057,3.197,1.625c1.333-0.445,2.048-1.876,1.618-3.21c-0.048-0.13-0.101-0.246-0.162-0.374l3.651-3.766
		c1.737,0.916,3.646,1.548,5.663,1.846l-0.971,9.111c-0.551,0.127-1.068,0.432-1.441,0.902c-0.857,1.11-0.659,2.691,0.45,3.559
		c1.111,0.859,2.701,0.652,3.559-0.453c0.854-1.109,0.65-2.695-0.458-3.559c-0.108-0.074-0.223-0.141-0.335-0.211l0.976-9.172
		c0.307,0.02,0.607,0.047,0.92,0.047c2.334,0,4.556-0.459,6.606-1.267l1.812,8.071c-0.452,0.329-0.81,0.801-0.971,1.386
		c-0.361,1.354,0.436,2.741,1.79,3.104c1.35,0.354,2.741-0.435,3.103-1.791c0.361-1.357-0.443-2.74-1.795-3.105
		c-0.132-0.035-0.264-0.049-0.401-0.064l-1.876-8.356c1.307-0.678,2.504-1.513,3.601-2.488l2.486,3.502
		c-0.225,0.352-0.339,0.761-0.282,1.211c0.137,1.009,1.074,1.726,2.094,1.594c1.022-0.141,1.731-1.079,1.597-2.097
		c-0.141-1.021-1.082-1.73-2.098-1.594c-0.096,0.014-0.17,0.064-0.261,0.092l-2.565-3.613c1.892-1.926,3.336-4.273,4.204-6.902
		l11.818,2.008c0.244,1.018,0.804,1.959,1.693,2.634c2.059,1.563,4.997,1.172,6.564-0.89
		C104.381,75.017,103.98,72.081,101.921,70.515z M60.116,66.849c-1.476,0-2.682-1.204-2.682-2.691c0-1.482,1.207-2.68,2.682-2.68
		c1.484,0,2.688,1.195,2.688,2.68S61.603,66.849,60.116,66.849z M67.042,72.683c-1.087,0-1.971-0.883-1.971-1.969
		c0-1.095,0.883-1.972,1.971-1.972c1.09,0,1.973,0.876,1.973,1.972C69.013,71.806,68.131,72.683,67.042,72.683z M74.361,64.335
		c-1.605,0-2.907-1.302-2.907-2.902c0-1.613,1.302-2.916,2.907-2.916c1.605,0,2.909,1.303,2.909,2.916
		C77.27,63.033,75.968,64.335,74.361,64.335z"/>
</g>
</svg>
